<?xml version="1.0" standalone="no"?>
<!DOCTYPE svg PUBLIC "-//W3C//DTD SVG 20010904//EN"
 "http://www.w3.org/TR/2001/REC-SVG-20010904/DTD/svg10.dtd">
<svg version="1.0" xmlns="http://www.w3.org/2000/svg"
 width="500.000000pt" height="500.000000pt" viewBox="0 0 500.000000 500.000000"
 preserveAspectRatio="xMidYMid meet">
<metadata>
Created by potrace 1.11, written by Peter Selinger 2001-2013
</metadata>
<g transform="translate(0.000000,500.000000) scale(0.100000,-0.100000)"
fill="#000000" stroke="none">
<path d="M620 4940 c-10 -6 -11 -10 -2 -10 6 0 12 -7 12 -15 0 -8 -5 -15 -11
-15 -5 0 -7 5 -3 12 4 7 3 8 -5 4 -9 -6 -9 -11 1 -24 11 -13 11 -14 0 -8 -8 5
-25 3 -39 -5 -20 -11 -26 -11 -34 1 -8 11 -9 7 -5 -15 3 -16 3 -24 0 -17 -3 6
-11 9 -16 6 -7 -5 -8 -2 -4 7 4 8 1 6 -7 -3 -8 -10 -17 -14 -21 -10 -5 4 -6 0
-5 -8 2 -8 -1 -15 -6 -15 -5 0 -8 6 -7 14 3 11 1 11 -11 0 -8 -8 -12 -20 -9
-28 3 -9 1 -12 -6 -7 -7 4 -12 3 -12 -2 0 -5 -11 -8 -24 -7 -19 2 -23 -1 -19
-13 4 -10 2 -13 -5 -8 -8 5 -10 2 -6 -8 7 -19 -12 -22 -20 -3 -4 6 -4 2 -2
-10 3 -16 -1 -21 -15 -18 -13 3 -16 -1 -12 -13 6 -15 5 -16 -12 -2 -17 14 -18
14 -7 -7 11 -19 10 -21 -7 -18 -14 3 -18 -1 -14 -11 3 -9 -1 -14 -12 -14 -15
0 -16 -2 -4 -17 13 -15 12 -15 -9 -4 -12 6 -22 8 -21 4 3 -20 -2 -27 -12 -13
-9 13 -10 13 -6 0 2 -8 11 -14 20 -14 9 1 14 -2 11 -8 -3 -5 -14 -6 -25 -3
-15 5 -17 3 -12 -11 5 -14 3 -16 -11 -11 -10 4 -15 3 -11 -3 3 -6 1 -10 -6
-10 -8 0 -8 -4 1 -15 12 -15 12 -16 -12 -19 -7 -1 -11 -10 -10 -21 3 -16 2
-17 -12 -6 -9 8 -19 11 -23 7 -3 -3 -1 -6 5 -6 7 0 12 -5 12 -11 0 -5 -5 -7
-11 -3 -7 4 -10 1 -7 -7 3 -8 -7 -22 -21 -31 -14 -10 -21 -18 -16 -18 6 0 16
5 23 12 9 9 12 9 12 1 0 -7 -5 -15 -10 -18 -6 -4 -7 -12 -3 -18 4 -7 -2 -5
-12 3 -17 14 -18 14 -5 -10 13 -24 12 -24 -5 -10 -17 14 -17 14 -7 -6 9 -18 8
-24 -4 -35 -8 -7 -13 -18 -10 -26 3 -8 1 -11 -4 -8 -6 3 -10 2 -10 -4 0 -5 -3
-17 -7 -27 -5 -13 -3 -15 8 -9 11 7 12 6 2 -6 -10 -12 -10 -18 0 -29 10 -12 9
-12 -5 -1 -15 11 -21 11 -34 0 -15 -12 -16 -11 -9 11 4 14 4 21 -1 17 -12 -12
-12 -91 0 -99 7 -5 7 -8 -1 -8 -10 0 -13 -240 -12 -1120 0 -792 3 -1119 10
-1114 7 4 9 -1 4 -15 -4 -13 -2 -21 5 -21 6 0 8 -4 5 -10 -3 -6 1 -7 10 -3 12
4 13 8 5 13 -7 4 -10 12 -7 17 4 6 0 19 -8 29 -17 23 -19 34 -5 34 6 0 9 -3 8
-7 -1 -5 3 -18 10 -30 7 -13 10 -23 7 -23 -3 0 2 -11 11 -25 15 -23 15 -25 0
-19 -13 5 -15 2 -10 -12 4 -11 14 -27 22 -37 15 -16 14 -17 -4 -11 -16 6 -17
5 -7 -7 6 -8 11 -18 11 -24 0 -5 6 -11 14 -13 10 -3 10 -2 -1 6 -8 6 -9 12 -3
16 5 3 13 -2 17 -12 8 -23 6 -28 -10 -24 -7 1 -16 -1 -19 -6 -3 -5 8 -8 25 -7
16 1 33 -3 36 -8 3 -6 2 -7 -3 -4 -6 3 -16 2 -24 -4 -12 -7 -12 -9 4 -9 13 0
16 -5 12 -16 -5 -12 -2 -15 11 -10 15 5 14 3 -2 -10 -20 -16 -20 -16 3 -9 19
6 22 3 22 -24 0 -24 4 -31 20 -31 12 0 20 -7 20 -17 0 -15 -2 -16 -10 -3 -5 8
-10 10 -10 5 0 -19 22 -34 39 -27 14 5 14 4 2 -11 -8 -10 -11 -20 -7 -24 3 -3
6 -1 6 5 0 7 5 12 10 12 6 0 10 -6 10 -14 0 -10 7 -13 21 -11 15 3 18 1 12 -8
-12 -15 -11 -27 4 -52 7 -11 13 -14 13 -7 0 6 5 12 11 12 6 0 8 -7 5 -16 -5
-12 -1 -14 17 -8 21 6 21 6 4 -13 -14 -16 -14 -20 -2 -20 8 0 12 4 9 9 -3 4 0
8 5 8 6 0 11 -5 11 -11 0 -5 4 -8 8 -5 14 9 35 -12 37 -36 1 -12 8 -23 16 -23
8 -1 13 -7 11 -14 -1 -7 2 -10 7 -6 6 3 8 13 5 23 -5 15 -5 15 6 -1 6 -9 9
-21 6 -25 -2 -4 4 -9 15 -9 18 -2 19 0 7 15 -9 13 -7 12 10 -2 25 -22 29 -38
7 -30 -8 4 -15 2 -15 -4 0 -11 18 -11 38 2 10 6 12 3 10 -10 -2 -10 3 -19 10
-20 6 -1 17 -2 23 -3 5 0 8 -5 5 -9 -2 -4 4 -9 15 -9 19 -2 19 -1 -2 16 -17
14 -19 18 -6 18 9 0 14 -4 11 -9 -5 -7 10 -12 29 -9 5 1 5 -4 1 -10 -5 -8 -2
-10 8 -7 11 5 14 0 11 -20 -2 -18 -1 -22 4 -11 9 18 42 17 54 -3 5 -7 9 -9 9
-4 0 5 7 2 16 -5 19 -15 47 -21 38 -8 -3 5 -10 6 -16 3 -7 -4 -8 -2 -4 5 4 6
12 9 17 6 13 -8 50 -17 77 -19 l23 -1 -22 -17 c-25 -21 -12 -24 15 -3 14 11
21 11 31 2 7 -7 10 -16 7 -21 -3 -5 0 -6 7 -2 6 4 9 12 6 17 -4 5 1 9 10 9 9
0 14 -3 11 -8 -2 -4 20 -7 49 -7 29 0 51 3 48 8 -2 4 -9 5 -14 2 -5 -4 -9 -2
-9 3 0 6 11 9 25 8 14 0 23 -6 21 -12 -2 -6 1 -11 7 -12 7 -1 24 -3 40 -6 15
-2 25 0 22 4 -3 5 -11 7 -18 4 -8 -3 -13 4 -13 16 0 13 4 16 10 10 14 -14 29
-12 20 3 -6 9 -5 9 7 0 12 -10 18 -10 27 -1 9 9 12 9 12 0 0 -11 -13 -16 -32
-13 -13 2 -9 -6 9 -20 11 -10 14 -10 9 -1 -4 7 -1 12 9 12 10 0 13 -5 9 -12
-4 -7 -3 -8 4 -4 6 4 8 14 5 23 -6 15 -5 16 9 3 9 -8 13 -19 10 -25 -3 -5 2
-4 11 4 10 8 29 11 44 8 25 -5 26 -4 10 8 -16 12 -16 13 8 11 14 0 23 -6 21
-12 -2 -6 1 -11 7 -12 7 -1 24 -3 40 -6 15 -2 25 0 22 4 -3 5 -11 7 -18 4 -8
-3 -13 4 -13 16 0 13 4 16 10 10 14 -14 29 -12 20 3 -6 9 -5 9 7 0 12 -10 18
-10 27 -1 9 9 12 9 12 0 0 -11 -13 -16 -32 -13 -13 2 -9 -6 9 -20 11 -10 14
-10 9 -1 -4 7 -1 12 9 12 10 0 13 -5 9 -12 -4 -7 -3 -8 4 -4 6 4 8 14 5 23 -6
15 -5 16 9 3 9 -8 13 -19 10 -25 -3 -5 2 -4 11 4 10 8 29 11 44 8 25 -5 26 -4
10 8 -16 12 -16 13 8 11 14 0 23 -6 21 -12 -2 -6 1 -11 7 -12 7 -1 24 -3 40
-6 15 -2 25 0 22 4 -3 5 -11 7 -18 4 -8 -3 -13 4 -13 16 0 13 4 16 10 10 14
-14 29 -12 20 3 -6 9 -5 9 7 0 12 -10 18 -10 27 -1 9 9 12 9 12 0 0 -11 -13
-16 -32 -13 -13 2 -9 -6 9 -20 11 -10 14 -10 9 -1 -4 7 -1 12 9 12 10 0 13 -5
9 -12 -4 -7 -3 -8 4 -4 6 4 8 14 5 23 -6 15 -5 16 9 3 9 -8 13 -19 10 -25 -3
-5 2 -4 11 4 10 8 29 11 44 8 25 -5 26 -4 10 8 -16 12 -16 13 8 11 18 -1 24
-5 20 -16 -4 -8 -3 -11 1 -8 4 4 15 3 24 -2 15 -8 18 -6 15 15 -2 22 0 23 14
13 9 -7 21 -18 27 -25 10 -11 13 -11 18 2 4 11 2 14 -6 9 -7 -4 -8 -3 -4 4 4
6 14 8 23 5 10 -4 14 -2 9 5 -3 6 -1 14 6 18 7 4 10 4 6 -1 -4 -4 -3 -14 3
-22 13 -15 33 -18 24 -3 -3 6 -1 10 4 10 6 0 11 -4 11 -10 0 -13 27 -13 33 0
3 6 4 5 3 -2 -2 -7 4 -22 13 -32 9 -11 10 -16 4 -12 -8 4 -13 1 -13 -9 0 -9 4
-14 9 -11 11 7 8 -21 -4 -31 -4 -4 -5 -2 0 6 6 10 4 12 -4 7 -8 -6 -9 -12 -2
-20 6 -7 8 -16 4 -19 -3 -4 -1 -7 7 -7 9 0 10 -3 1 -13 -6 -8 -8 -17 -4 -21
11 -10 12 -37 2 -30 -5 3 -7 9 -4 14 3 5 1 11 -4 15 -12 7 -7 -26 9 -54 9 -17
8 -20 -5 -15 -8 3 -13 10 -10 14 3 5 2 11 -3 14 -4 2 -8 -11 -8 -30 0 -19 4
-34 9 -34 5 0 7 7 4 14 -4 10 -1 13 7 10 7 -3 13 -11 13 -19 0 -8 -4 -12 -9
-9 -16 10 -8 -9 10 -23 9 -7 12 -12 5 -11 -9 3 -15 -5 -12 -14 6 -21 5 -37 -2
-32 -5 3 -7 9 -4 14 3 5 1 11 -4 15 -12 7 -7 -26 9 -54 9 -17 8 -20 -5 -15 -8
3 -13 10 -10 14 3 5 2 11 -3 14 -4 2 -8 -11 -8 -30 0 -19 4 -34 9 -34 5 0 7 7
4 14 -4 10 -1 13 7 10 7 -3 13 -11 13 -19 0 -8 -4 -12 -9 -9 -16 10 -8 -9 10
-23 9 -7 12 -12 5 -11 -9 3 -15 -5 -12 -14 6 -21 5 -37 -2 -32 -5 3 -7 9 -4
14 3 5 1 11 -4 15 -12 7 -7 -26 9 -54 9 -17 8 -20 -5 -15 -8 3 -13 10 -10 14
3 5 2 11 -3 14 -4 2 -8 -11 -8 -30 0 -19 4 -34 9 -34 5 0 7 7 4 14 -4 10 -1
13 7 10 7 -3 13 -11 13 -19 0 -8 -4 -12 -9 -9 -16 10 -8 -9 10 -23 9 -7 12
-12 5 -11 -9 3 -15 -5 -12 -14 6 -21 5 -37 -2 -32 -5 3 -7 9 -4 14 3 5 1 11
-4 14 -5 4 -7 -7 -4 -25 3 -20 0 -35 -9 -40 -9 -6 -9 -9 -1 -9 7 0 17 8 22 18
6 9 11 12 11 5 0 -7 -6 -18 -14 -25 -9 -9 -11 -20 -5 -34 4 -12 5 -25 1 -29
-4 -4 -7 -12 -7 -18 -1 -7 -7 -11 -15 -9 -10 3 -9 -3 4 -17 24 -27 24 -27 21
9 -1 16 1 27 6 24 5 -3 9 0 9 7 0 7 3 10 6 6 3 -3 2 -12 -2 -19 -5 -7 -9 -20
-9 -28 0 -8 -3 -20 -7 -25 -4 -6 -3 -17 3 -25 12 -20 11 -30 -2 -30 -5 0 -8 3
-5 8 2 4 -2 18 -11 32 -9 17 -12 18 -8 5 7 -21 13 -45 14 -58 1 -5 5 -6 10 -3
5 4 8 -1 7 -9 -3 -19 -12 -23 -23 -11 -5 5 -2 6 7 1 12 -6 13 -5 3 5 -7 8 -16
10 -20 6 -5 -4 1 -15 13 -25 21 -17 29 -51 11 -51 -5 0 -6 7 -3 16 3 8 2 12
-4 9 -6 -3 -10 -1 -10 6 0 7 -3 10 -6 7 -3 -4 -1 -15 5 -27 7 -13 8 -22 1 -26
-13 -8 -13 -25 0 -25 5 0 9 3 7 8 -1 4 2 8 7 10 6 1 11 -4 12 -13 1 -8 -2 -13
-7 -9 -15 9 -10 -13 6 -26 11 -9 12 -16 5 -25 -12 -15 -23 -62 -12 -51 4 4 8
12 8 17 1 5 2 14 3 19 0 6 6 10 12 10 5 0 8 -4 5 -8 -2 -4 6 -8 19 -8 13 0 23
2 22 6 -1 3 5 15 12 28 7 13 10 30 7 38 -3 8 0 13 7 11 7 -1 11 4 9 11 -2 10
2 10 18 2 18 -10 19 -9 10 16 -9 24 -9 25 5 14 13 -10 15 -9 15 9 0 11 5 21
11 21 5 0 8 -4 5 -8 -3 -5 1 -9 9 -9 8 0 15 4 15 9 0 4 -4 8 -9 8 -7 0 -8 14
-2 38 1 1 10 -2 21 -8 18 -10 19 -9 10 15 -7 17 -7 24 0 20 6 -3 10 -1 10 6 0
8 5 7 16 -2 15 -12 16 -11 10 9 -8 24 3 29 22 10 7 -7 12 -9 12 -6 0 4 -7 14
-15 22 -14 14 -13 16 10 22 14 3 25 10 25 16 0 5 -5 6 -12 2 -7 -5 -8 -3 -3 5
4 7 18 11 31 8 29 -5 29 -4 7 19 -17 17 -17 18 1 11 14 -6 17 -4 12 9 -5 13
-4 14 7 6 18 -15 30 -3 15 15 -8 10 -8 12 4 8 10 -4 23 4 37 23 23 32 27 47
11 37 -15 -9 -12 1 4 14 11 9 16 9 22 0 5 -8 3 -9 -6 -4 -9 5 -11 4 -6 -4 11
-16 26 -3 19 16 -5 12 -3 14 7 8 10 -6 12 -4 8 7 -4 8 -2 21 4 29 8 11 9 10 4
-4 -4 -12 -2 -17 6 -14 7 2 12 12 10 22 -2 11 1 15 9 9 9 -5 10 -2 6 9 -7 19
8 32 19 16 5 -8 3 -9 -6 -4 -9 5 -11 4 -6 -4 11 -17 26 -3 19 17 -6 14 -4 15
8 5 13 -10 15 -8 13 17 -1 17 2 27 8 24 5 -3 7 -13 4 -21 -3 -8 -1 -11 4 -8
12 8 9 36 -5 48 -6 5 -2 6 8 3 11 -4 29 2 44 14 14 11 22 20 18 20 -5 0 -18
-8 -29 -18 -16 -13 -18 -13 -8 -1 6 9 8 20 4 24 -4 5 -1 4 7 0 11 -6 13 -4 7
10 -5 15 -4 16 9 5 12 -10 15 -10 15 0 0 7 7 10 14 7 10 -4 13 -1 9 8 -3 8
-10 12 -16 8 -6 -3 -7 -1 -3 6 6 9 11 9 22 0 17 -14 19 2 3 18 -9 9 -7 10 10
6 13 -3 21 -1 21 6 0 7 -5 9 -12 5 -7 -5 -8 -3 -3 5 4 8 17 10 32 6 23 -5 24
-5 9 10 -20 20 -20 26 -1 19 8 -3 26 4 41 15 26 20 21 26 -16 21 -10 -1 -9 3
5 14 24 18 39 21 29 4 -4 -7 -3 -8 4 -4 7 4 12 14 12 22 0 8 4 13 8 10 4 -2
14 0 22 6 12 8 11 9 -3 4 -12 -4 -17 -2 -14 6 2 7 10 12 17 10 7 -2 10 3 7 12
-3 8 1 20 9 27 13 10 17 10 25 -2 7 -10 8 -7 5 11 -5 35 12 54 32 38 10 -8 13
-9 9 -1 -10 16 3 44 16 36 6 -4 8 0 4 10 -5 12 0 14 21 11 26 -5 26 -5 7 10
-19 15 -19 15 5 11 22 -4 23 -3 8 8 -15 12 -15 14 1 24 14 9 22 9 31 0 10 -9
11 -9 6 1 -4 6 -2 12 4 12 6 0 8 5 5 10 -3 6 -1 10 5 10 6 0 8 5 4 12 -4 7 -3
8 4 4 6 -4 9 -14 6 -24 -4 -10 -2 -13 3 -7 4 6 17 11 28 11 11 0 24 -5 28 -11
5 -5 5 0 2 13 -4 13 -2 22 4 22 6 0 11 -4 11 -10 0 -16 22 -12 36 8 11 13 13
14 9 1 -3 -9 0 -20 7 -26 15 -12 49 -13 42 -2 -2 5 -10 6 -17 3 -8 -3 -13 4
-13 16 0 13 4 16 10 10 14 -14 29 -12 20 3 -5 9 -4 9 6 0 10 -9 17 -10 27 -2
9 8 13 8 13 0 0 -10 -13 -15 -32 -12 -13 2 -9 -6 9 -20 11 -10 14 -10 9 -1 -4
7 -1 12 9 12 10 0 13 -5 9 -12 -4 -7 -3 -8 4 -4 6 4 8 14 5 23 -6 15 -5 16 9
3 9 -8 13 -19 10 -25 -3 -5 2 -4 11 4 10 8 29 11 44 8 25 -5 26 -4 10 8 -16
12 -16 13 8 11 14 0 23 -6 21 -12 -2 -6 1 -11 7 -12 7 -1 24 -3 40 -6 15 -2
25 0 22 4 -3 5 -11 7 -18 4 -8 -3 -13 4 -13 16 0 13 4 16 10 10 14 -14 29 -12
20 3 -6 9 -5 9 7 0 12 -10 18 -10 27 -1 9 9 12 9 12 0 0 -11 -13 -16 -32 -13
-13 2 -9 -6 9 -20 11 -10 14 -10 9 -1 -4 7 -1 12 9 12 10 0 13 -5 9 -12 -4 -7
-3 -8 4 -4 6 4 8 14 5 23 -6 15 -5 16 9 3 9 -8 13 -19 10 -25 -3 -5 2 -4 11 4
10 8 29 11 44 8 25 -5 26 -4 10 8 -16 12 -16 13 8 11 14 0 23 -6 21 -12 -2 -6
1 -11 7 -12 7 -1 24 -3 40 -6 15 -2 25 0 22 4 -3 5 -11 7 -18 4 -8 -3 -13 4
-13 16 0 13 4 16 10 10 14 -14 29 -12 20 3 -6 9 -5 9 7 0 12 -10 18 -10 27 -1
9 9 12 9 12 0 0 -11 -13 -16 -32 -13 -13 2 -9 -6 9 -20 11 -10 14 -10 9 -2 -4
8 -1 13 9 13 10 0 13 -5 9 -12 -4 -7 -3 -8 4 -4 6 4 8 14 5 23 -6 15 -5 16 9
3 9 -8 13 -19 10 -25 -3 -5 2 -4 11 4 10 8 29 11 44 8 25 -5 26 -4 10 8 -16
12 -16 13 8 11 18 -1 24 -5 20 -16 -4 -8 -3 -11 1 -7 4 4 13 2 21 -4 10 -9 13
-8 13 1 0 10 3 10 14 1 8 -7 17 -8 20 -3 9 14 -3 21 -30 16 -13 -2 -24 0 -24
5 0 5 8 8 18 6 9 -1 23 2 30 8 10 8 12 7 10 -4 -2 -9 7 -15 25 -17 15 -2 25
-8 22 -13 -4 -5 -4 -9 -1 -9 3 0 12 12 20 28 8 15 15 21 16 14 0 -7 5 -10 12
-6 7 4 8 3 4 -5 -4 -6 -13 -8 -19 -5 -7 4 -9 4 -5 -1 10 -11 78 -14 72 -3 -3
5 -10 6 -15 3 -5 -4 -9 -1 -9 5 0 7 7 9 16 6 9 -3 20 -6 25 -6 6 0 7 -5 3 -12
-4 -6 -3 -8 4 -4 5 3 13 0 16 -6 3 -7 4 -2 1 12 -3 14 -2 19 1 13 9 -20 27
-15 19 5 -5 14 -4 15 6 4 15 -14 33 -16 24 -2 -3 6 1 7 9 4 9 -3 16 -10 16
-16 0 -5 -4 -7 -8 -4 -5 3 -9 -1 -9 -9 0 -19 0 -20 34 13 19 17 42 28 62 28
33 2 36 -6 4 -10 -10 -2 -19 -11 -20 -22 -2 -14 -1 -15 5 -4 7 14 23 22 49 23
9 0 9 5 1 21 -10 19 -10 20 6 7 15 -13 19 -13 27 0 7 12 9 12 10 -1 1 -8 1
-19 0 -23 -1 -5 3 -6 9 -2 6 3 8 10 5 15 -3 4 2 13 10 20 13 11 14 10 10 -2
-4 -9 0 -15 9 -15 8 0 12 6 9 13 -2 6 1 15 8 20 7 4 10 3 6 -3 -4 -6 0 -14 9
-17 10 -4 13 -2 8 6 -5 7 -2 9 8 5 9 -3 23 2 33 13 10 11 21 18 25 15 4 -2 16
4 26 14 11 10 27 17 37 15 9 -1 15 2 11 7 -3 5 -9 7 -14 4 -5 -3 -12 -1 -15 5
-4 6 -1 9 7 8 7 -2 12 2 11 9 -2 7 4 10 12 7 8 -4 12 -11 9 -18 -4 -6 5 1 18
17 14 15 33 27 42 27 9 0 16 5 16 11 0 5 4 7 10 4 6 -4 7 1 3 11 -5 14 -3 16
11 11 11 -4 15 -3 10 4 -4 8 1 9 17 4 22 -7 22 -7 6 9 -19 19 -23 31 -6 21 6
-4 13 3 16 15 4 15 8 18 14 9 6 -10 11 -10 23 0 13 11 14 17 4 28 -9 11 -8 13
3 11 8 -2 13 4 13 14 -1 10 2 15 7 13 4 -3 12 2 17 11 5 10 16 15 24 12 10 -4
14 1 14 16 -1 11 4 20 11 19 7 -2 10 6 8 17 -2 12 1 17 10 14 7 -3 16 0 21 7
5 8 3 10 -6 4 -9 -6 -11 -4 -5 5 4 7 2 16 -6 22 -11 8 -10 9 4 4 12 -4 21 1
27 17 5 12 9 18 10 12 0 -5 4 -3 10 5 6 9 5 20 -3 29 -9 11 -9 13 0 8 7 -4 14
1 18 14 5 15 13 19 27 16 15 -4 17 -2 8 8 -6 7 -7 21 -3 30 5 14 3 16 -7 10
-9 -5 -11 -4 -6 4 6 9 11 9 24 -1 13 -11 14 -11 8 0 -5 8 -1 19 10 28 14 10
15 13 3 9 -9 -3 -22 1 -29 10 -11 13 -10 14 5 9 11 -5 21 -1 27 10 5 9 13 14
17 11 10 -5 6 39 -5 56 -4 8 -3 9 4 5 9 -5 12 282 11 1147 0 962 -3 1154 -14
1154 -7 0 -13 -9 -12 -19 1 -10 5 -18 11 -18 5 0 2 -8 -7 -18 -10 -10 -14 -22
-10 -25 3 -4 4 -7 1 -7 -3 0 -11 7 -18 16 -11 12 -11 15 0 12 20 -5 23 20 3
25 -17 5 -17 5 0 6 10 0 15 6 12 11 -4 6 -11 8 -16 5 -5 -3 -6 2 -2 11 5 13 3
15 -7 9 -9 -5 -11 -4 -6 3 4 7 2 12 -5 12 -7 0 -9 3 -6 6 4 4 14 1 23 -7 14
-11 18 -11 21 -1 3 6 10 9 15 6 7 -4 8 -2 4 5 -6 9 -11 9 -21 1 -9 -8 -14 -7
-18 4 -3 8 -1 17 6 20 7 2 4 5 -5 5 -10 1 -18 -4 -18 -11 0 -6 -3 -8 -6 -5 -4
4 -1 14 7 23 15 19 21 47 8 38 -8 -5 -13 9 -10 29 0 4 -4 7 -10 7 -6 0 -9 -7
-6 -15 4 -8 1 -17 -6 -21 -7 -4 -9 -4 -5 1 4 4 3 14 -3 21 -7 8 -7 14 0 19 7
4 6 14 -4 29 -8 12 -12 26 -8 31 5 4 2 5 -5 1 -7 -4 -10 -12 -7 -17 4 -5 1 -9
-4 -9 -14 0 -14 6 -1 31 6 11 7 19 3 18 -18 -4 -43 15 -43 33 0 12 4 17 12 12
7 -5 8 -3 4 5 -6 9 -13 8 -29 -6 -14 -12 -17 -12 -10 -2 10 12 8 18 -8 32 -11
10 -17 22 -14 27 3 6 1 10 -6 10 -8 0 -8 4 1 15 17 20 6 19 -15 -1 -13 -13
-16 -14 -15 -3 4 28 0 49 -10 49 -5 0 -7 -8 -3 -17 3 -10 -3 -7 -13 7 -10 14
-23 28 -28 32 -8 5 -7 8 1 8 7 0 17 -8 22 -17 6 -10 11 -13 11 -7 0 19 -29 37
-47 30 -14 -6 -15 -4 -6 5 9 9 9 15 -2 25 -18 18 -31 18 -16 0 9 -11 9 -16 0
-22 -7 -4 -9 -3 -6 3 8 12 -24 43 -61 60 -15 6 -21 12 -14 12 6 1 12 8 12 16
0 13 -4 14 -22 4 -20 -11 -21 -10 -11 2 10 12 8 15 -10 16 -12 1 -23 7 -25 13
-2 5 -15 10 -28 10 -13 0 -24 5 -24 11 0 6 7 8 17 4 15 -5 14 -3 -2 13 -16 15
-22 16 -32 6 -10 -9 -18 -10 -38 -1 -14 7 -25 16 -25 20 0 5 -4 6 -8 3 -4 -2
-14 -1 -22 4 -13 8 -13 11 -1 22 9 8 11 9 7 1 -3 -6 -1 -15 6 -19 7 -4 10 -4
6 1 -4 4 -4 13 1 19 7 8 0 12 -20 12 -16 1 -26 -3 -23 -8 4 -6 -3 -5 -14 1
-28 15 -3646 16 -3637 1 3 -5 2 -10 -4 -10 -5 0 -11 6 -14 13 -2 6 -8 9 -12 5
-4 -4 -2 -15 6 -24 13 -16 12 -16 -8 -4 -12 8 -19 18 -17 22 7 10 2 10 -16 -2z
m380 -75 c-7 -8 -16 -12 -21 -9 -5 3 -6 -2 -2 -11 3 -11 8 -13 12 -6 4 6 17 9
28 7 15 -3 20 0 17 9 -3 7 0 16 6 20 6 3 9 1 8 -6 -2 -6 3 -14 11 -17 9 -3 11
0 6 8 -5 8 -4 11 3 6 6 -4 10 -12 8 -19 -1 -7 -1 -9 1 -4 3 4 9 5 14 2 5 -4 6
0 3 8 -3 8 1 14 10 14 8 0 13 -4 10 -9 -3 -4 0 -8 6 -8 6 0 9 -4 6 -8 -3 -5 1
-9 9 -9 11 0 12 4 4 14 -6 7 -9 13 -6 13 3 0 12 3 21 6 9 3 16 1 16 -6 0 -6
-6 -8 -12 -4 -7 4 -10 3 -5 -1 12 -13 48 -14 38 -1 -6 8 2 11 25 12 19 1 34
-2 34 -7 0 -4 -8 -6 -18 -4 -12 2 -18 -4 -20 -18 -1 -17 1 -19 8 -7 5 8 10 11
10 6 0 -5 7 -3 15 4 11 9 18 10 29 1 10 -9 15 -8 19 3 4 10 1 13 -7 10 -8 -3
-17 -1 -20 4 -3 5 8 8 24 6 18 -2 30 1 30 8 0 6 3 8 7 5 3 -4 -2 -17 -13 -29
-10 -13 -12 -17 -4 -10 16 13 34 17 26 4 -2 -4 4 -9 15 -9 10 -1 19 2 19 8 0
5 -3 8 -7 7 -5 -2 -8 2 -8 7 0 6 10 9 23 8 12 -1 22 3 22 9 0 6 3 8 7 5 3 -4
-2 -17 -13 -29 -10 -13 -12 -17 -4 -10 16 13 34 17 26 4 -2 -4 5 -9 16 -9 20
-2 20 -1 2 12 -19 15 -18 16 14 19 9 1 24 5 32 11 13 8 13 7 1 -8 -7 -9 -18
-14 -25 -10 -6 4 -5 -1 3 -10 14 -18 26 -23 17 -8 -3 5 1 11 9 15 8 3 19 -3
25 -12 9 -15 10 -14 5 5 -3 12 -1 25 6 29 7 4 9 3 5 -4 -7 -12 4 -21 33 -27
13 -2 18 1 15 9 -3 7 2 13 10 13 8 0 13 -4 10 -9 -3 -4 -1 -8 5 -8 5 0 11 -6
14 -12 2 -7 3 -5 2 5 -2 9 -2 17 0 17 2 0 10 3 19 6 9 3 16 1 16 -6 0 -6 -4
-9 -8 -6 -5 3 -9 -1 -9 -9 0 -11 4 -12 14 -4 10 9 18 8 31 -2 16 -13 16 -13 0
6 -16 19 -16 20 12 20 16 1 26 -3 24 -7 -3 -5 -10 -6 -15 -3 -15 10 -10 -2 8
-16 9 -8 14 -9 10 -3 -8 14 31 32 61 28 12 -2 22 1 22 8 0 6 3 8 7 5 3 -4 -2
-17 -13 -29 -10 -13 -12 -17 -4 -10 16 13 34 17 26 4 -2 -4 4 -9 15 -9 10 -1
19 2 19 8 0 5 -3 8 -8 6 -4 -1 -7 3 -7 8 0 6 10 9 23 8 12 -1 22 3 22 9 0 6 3
8 7 5 3 -4 -2 -17 -13 -29 -10 -13 -12 -17 -4 -10 16 13 34 17 26 4 -2 -4 5
-9 16 -9 20 -2 20 -1 2 12 -19 15 -18 16 14 19 9 1 24 5 32 11 13 8 13 7 1 -8
-7 -9 -17 -14 -22 -11 -5 3 -6 -2 -2 -11 3 -11 8 -13 12 -6 4 6 17 9 28 7 15
-3 20 0 17 9 -3 7 0 16 6 20 6 3 9 1 8 -6 -2 -6 3 -14 11 -17 9 -3 11 0 6 8
-5 8 -4 11 3 6 6 -4 10 -12 8 -19 -1 -7 -1 -9 1 -4 3 4 9 5 14 2 5 -4 6 0 3 8
-3 8 1 14 10 14 8 0 13 -4 10 -9 -3 -4 0 -8 6 -8 6 0 9 -4 6 -8 -3 -5 1 -9 9
-9 11 0 12 4 4 14 -6 7 -9 13 -6 13 3 0 12 3 21 6 9 3 16 1 16 -6 0 -6 -6 -8
-12 -4 -7 4 -10 3 -5 -1 12 -13 48 -14 38 -1 -6 8 2 11 25 12 19 1 34 -2 34
-7 0 -4 -8 -6 -18 -4 -12 2 -18 -4 -20 -18 -1 -17 1 -19 8 -7 5 8 10 11 10 6
0 -5 7 -3 15 4 11 9 18 10 29 1 10 -9 15 -8 19 3 4 10 1 13 -7 10 -8 -3 -17
-1 -20 4 -3 5 8 8 24 6 18 -2 30 1 30 8 0 6 3 8 7 5 3 -4 -2 -17 -13 -29 -10
-13 -12 -17 -4 -10 16 13 34 17 26 4 -2 -4 4 -9 15 -9 10 -1 19 2 19 8 0 5 -3
8 -7 6 -5 -1 -8 3 -8 8 0 6 10 9 23 8 12 -1 22 3 22 9 0 6 3 8 7 5 3 -4 -2
-17 -13 -29 -10 -13 -12 -17 -4 -10 16 13 34 17 26 4 -2 -4 5 -9 16 -9 20 -2
20 -1 2 12 -19 15 -18 16 14 19 9 1 24 5 32 11 13 8 13 7 1 -8 -7 -9 -17 -14
-22 -11 -16 9 -10 -3 8 -17 9 -8 14 -9 10 -3 -11 19 22 25 33 6 9 -15 10 -14
5 5 -3 12 -1 25 6 29 7 4 9 3 5 -4 -7 -12 4 -21 33 -27 13 -2 18 1 15 9 -3 7
2 13 10 13 8 0 13 -4 10 -9 -3 -4 -1 -8 5 -8 5 0 11 -6 14 -12 2 -7 3 -5 2 5
-2 9 -2 17 0 17 2 0 10 3 19 6 9 3 16 1 16 -6 0 -6 -4 -9 -8 -6 -5 3 -9 -1 -9
-9 0 -11 4 -12 14 -4 10 9 18 8 31 -2 16 -13 16 -13 0 6 -16 19 -16 20 12 20
16 1 26 -3 24 -7 -3 -5 -10 -6 -15 -3 -15 10 -10 -2 8 -16 9 -8 14 -9 10 -3
-8 14 31 32 61 28 12 -2 22 1 22 8 0 6 3 8 7 5 3 -4 -2 -17 -13 -29 -10 -13
-12 -17 -4 -10 16 13 34 17 26 4 -2 -4 4 -9 15 -9 10 -1 19 2 19 8 0 5 -3 8
-7 7 -5 -2 -9 2 -10 7 -1 6 9 9 22 8 14 -1 25 3 25 9 0 6 3 8 7 5 3 -4 -2 -17
-13 -29 -10 -13 -12 -17 -4 -10 16 13 34 17 26 4 -2 -4 5 -9 16 -9 20 -2 20
-1 2 12 -19 15 -18 16 14 19 9 1 24 5 32 11 13 8 13 7 1 -8 -7 -9 -17 -14 -22
-11 -5 3 -6 -2 -2 -11 3 -11 8 -13 12 -6 4 6 17 9 28 7 15 -3 20 0 17 9 -3 7
0 16 6 20 6 3 9 1 8 -6 -2 -6 3 -14 11 -17 9 -3 11 0 6 8 -5 8 -4 11 3 6 6 -4
10 -12 8 -19 -1 -7 -1 -9 1 -4 3 4 9 5 14 2 5 -4 6 0 3 8 -3 8 1 14 10 14 8 0
13 -4 10 -9 -3 -4 0 -8 6 -8 6 0 9 -4 6 -8 -3 -5 1 -9 9 -9 11 0 12 4 4 14 -6
7 -9 13 -6 13 3 0 12 3 21 6 9 3 16 1 16 -6 0 -6 -6 -8 -12 -4 -7 4 -10 3 -5
-1 12 -13 48 -14 38 -1 -6 8 2 11 25 12 19 1 34 -2 34 -7 0 -4 -8 -6 -18 -4
-12 2 -18 -4 -20 -18 -1 -17 1 -19 8 -7 5 8 10 11 10 6 0 -5 7 -3 15 4 11 9
18 10 29 1 10 -9 15 -8 19 3 4 10 1 13 -7 10 -8 -3 -17 -1 -20 4 -3 5 8 8 24
6 18 -2 30 1 30 8 0 6 3 8 7 5 3 -4 -2 -17 -13 -29 -10 -13 -12 -17 -4 -10 16
13 34 17 26 4 -2 -4 4 -9 15 -9 10 -1 19 2 19 8 0 5 -3 8 -7 7 -5 -2 -9 2 -10
7 -1 6 9 9 22 8 14 -1 25 3 25 9 0 6 3 8 7 5 3 -4 -2 -17 -13 -29 -10 -13 -12
-17 -4 -10 16 13 34 17 26 4 -2 -4 5 -9 16 -9 20 -2 20 -1 2 12 -19 15 -18 16
14 19 9 1 24 5 32 11 13 8 13 7 1 -8 -7 -9 -18 -14 -25 -10 -6 4 -5 -1 3 -10
14 -18 26 -23 17 -8 -3 5 1 11 9 15 8 3 19 -3 25 -12 9 -15 10 -14 5 5 -3 12
-1 25 6 29 7 4 9 3 5 -4 -7 -12 4 -21 33 -27 13 -2 18 1 15 9 -3 7 2 13 10 13
8 0 13 -4 10 -9 -3 -4 -1 -8 5 -8 5 0 11 -6 14 -12 2 -7 3 -5 2 5 -2 9 -2 17
0 17 2 0 10 3 19 6 9 3 16 1 16 -6 0 -6 -4 -9 -8 -6 -5 3 -9 -1 -9 -9 0 -11 4
-12 14 -4 10 9 18 8 31 -2 16 -13 16 -13 0 6 -16 19 -16 20 12 20 16 1 26 -3
24 -7 -3 -5 -10 -6 -15 -3 -15 10 -10 -2 8 -16 9 -8 14 -9 10 -3 -8 14 31 32
61 28 12 -2 22 1 22 8 0 6 3 8 7 5 3 -4 -2 -17 -13 -29 -10 -13 -12 -17 -4
-10 16 13 34 17 26 4 -2 -4 4 -9 15 -9 10 -1 19 2 19 8 0 5 -3 8 -7 7 -5 -2
-8 2 -8 7 0 6 10 9 23 8 12 -1 22 3 22 9 0 6 3 8 7 5 3 -4 -2 -17 -13 -29 -10
-13 -12 -17 -4 -10 16 13 34 17 26 4 -2 -4 5 -9 16 -9 20 -2 20 -1 2 12 -19
15 -18 16 14 19 9 1 24 5 32 11 13 8 13 7 1 -8 -7 -9 -17 -14 -22 -11 -5 3 -6
-2 -2 -11 3 -11 8 -13 12 -6 4 6 17 9 28 7 15 -3 20 0 17 9 -3 7 0 16 6 20 6
3 9 1 8 -6 -2 -6 3 -14 11 -17 9 -3 11 0 6 8 -5 8 -4 11 3 6 6 -4 10 -12 8
-19 -1 -7 -1 -9 1 -4 3 4 9 5 14 2 5 -4 6 0 3 8 -3 8 1 14 10 14 8 0 12 -5 9
-10 -4 -6 1 -8 12 -4 9 4 25 2 33 -5 13 -11 15 -10 10 4 -5 11 -2 15 10 13 9
-2 17 -4 17 -5 0 -8 53 -5 64 4 12 9 13 8 6 -3 -6 -11 -4 -13 8 -8 9 3 23 -1
32 -9 11 -12 15 -12 15 -2 0 7 8 0 19 -15 14 -23 20 -25 24 -13 4 9 1 15 -5
13 -6 -1 -13 5 -15 13 -3 10 -2 11 4 4 4 -6 16 -10 26 -8 9 1 15 -1 12 -5 -2
-5 2 -17 10 -27 12 -15 14 -16 9 -2 -5 15 -2 16 24 6 17 -7 30 -17 29 -22 -1
-6 4 -10 12 -8 7 2 22 -5 32 -14 16 -14 22 -15 32 -5 9 10 9 11 -3 8 -8 -2
-12 -2 -7 0 4 3 5 9 1 14 -11 18 3 9 27 -18 18 -20 19 -24 4 -13 -18 14 -19
14 -6 -2 10 -13 18 -15 31 -8 25 13 40 12 17 -1 -18 -11 -14 -29 6 -29 7 0 6
4 -3 10 -8 5 -10 10 -4 10 6 0 17 -7 24 -15 10 -12 10 -15 0 -15 -8 0 -11 -3
-8 -6 4 -3 16 0 28 6 15 8 20 8 16 1 -4 -6 -2 -11 4 -11 6 0 8 -5 4 -12 -5 -8
-2 -9 9 -5 10 4 22 -1 30 -13 8 -11 17 -17 22 -12 5 4 5 1 1 -6 -4 -7 -11 -10
-15 -8 -4 3 -8 -1 -8 -9 0 -11 5 -12 20 -3 15 8 18 7 12 -3 -6 -9 -3 -11 8 -6
12 4 14 2 10 -10 -4 -11 -2 -14 5 -9 7 4 12 2 12 -3 0 -6 -6 -11 -12 -11 -9 0
-9 -3 1 -9 8 -5 20 -7 28 -4 9 4 11 0 7 -12 -6 -14 -3 -16 14 -10 14 4 22 2
22 -5 0 -6 -4 -8 -10 -5 -5 3 -10 -1 -10 -10 0 -9 5 -13 10 -10 6 3 10 2 10
-4 0 -5 -6 -12 -12 -15 -7 -3 0 -3 16 -1 27 4 27 3 12 -14 -16 -17 -15 -18 9
-15 25 2 26 1 11 -21 -14 -21 -14 -23 4 -18 11 3 17 10 13 17 -3 6 -2 7 2 3
16 -14 14 -36 -3 -31 -14 5 -14 4 1 -6 9 -6 20 -9 25 -7 4 3 8 -8 9 -24 2 -20
-2 -27 -9 -23 -7 4 -8 3 -4 -5 4 -6 12 -9 17 -6 5 4 9 -1 9 -10 0 -9 -4 -13
-10 -10 -5 3 -10 1 -10 -5 0 -7 7 -10 14 -7 11 5 14 -1 11 -22 -2 -19 1 -28
11 -28 9 0 11 4 4 12 -6 8 -5 18 3 29 11 15 13 12 13 -21 -1 -25 4 -37 12 -36
6 2 12 -2 12 -7 0 -13 -17 -13 -25 0 -3 6 -12 10 -18 10 -7 0 -4 -5 6 -11 11
-7 16 -17 12 -29 -3 -10 -1 -21 4 -25 7 -3 8 0 5 9 -3 9 -2 16 4 16 11 0 11
-18 -2 -38 -4 -7 -5 -16 -1 -20 3 -3 10 0 15 8 6 10 7 1 3 -25 -3 -22 -10 -41
-15 -43 -4 -2 -8 -8 -8 -13 0 -6 4 -8 8 -5 4 2 14 1 22 -5 9 -5 10 -9 3 -9 -6
0 -11 -9 -10 -20 1 -12 7 -18 14 -16 7 3 13 1 13 -4 0 -6 -10 -10 -22 -11 -21
0 -22 -1 -3 -8 13 -5 20 -18 20 -39 1 -35 -4 -39 -24 -19 -11 10 -12 8 -4 -8
6 -11 8 -27 6 -35 -3 -8 1 -6 10 5 8 11 19 17 23 12 4 -4 2 -7 -4 -7 -7 0 -12
-7 -12 -16 0 -9 5 -12 12 -8 7 4 8 3 4 -4 -4 -6 -14 -9 -24 -6 -9 3 -6 -1 7
-9 18 -11 20 -16 10 -20 -12 -5 -12 -7 1 -16 17 -12 10 -14 -14 -5 -12 5 -14
10 -6 19 7 8 6 12 -4 12 -8 0 -12 -7 -11 -16 2 -9 4 -19 4 -23 1 -5 8 -8 17
-8 8 0 12 -5 9 -10 -4 -6 -10 -8 -15 -5 -4 3 -14 -3 -21 -12 -12 -15 -12 -16
1 -8 8 5 23 11 33 12 15 3 16 1 5 -11 -7 -8 -16 -12 -20 -9 -4 2 -5 -3 -2 -11
3 -9 11 -13 18 -9 6 3 8 3 4 -2 -4 -4 0 -14 10 -22 13 -10 13 -12 2 -8 -12 4
-16 -3 -17 -30 0 -23 3 -33 11 -28 6 3 7 2 3 -3 -5 -5 -14 -9 -20 -9 -7 0 -11
-9 -9 -19 2 -10 -1 -15 -7 -12 -10 7 -8 -25 3 -43 4 -5 1 -12 -4 -14 -6 -3 -5
-4 1 -3 15 3 21 36 8 36 -6 0 -7 5 -3 11 10 17 23 -10 18 -38 -3 -17 -1 -22 7
-17 8 4 9 3 5 -4 -4 -7 -15 -12 -24 -12 -14 0 -15 -2 -2 -9 8 -6 19 -7 25 -3
5 3 4 -2 -4 -12 -12 -14 -12 -19 -2 -26 10 -6 8 -10 -8 -15 -11 -3 -21 -11
-21 -16 0 -6 4 -7 10 -4 6 3 10 0 10 -7 0 -9 3 -9 10 2 5 8 10 11 10 5 -1 -5
-7 -19 -15 -29 -13 -17 -13 -22 0 -36 13 -14 13 -17 0 -17 -8 0 -12 4 -9 9 9
15 -3 8 -17 -9 -12 -14 -12 -15 0 -9 10 7 12 3 6 -13 -4 -13 -2 -21 5 -21 6 0
9 4 5 9 -3 5 0 13 6 17 7 4 9 3 5 -4 -3 -6 -2 -13 4 -17 6 -4 5 -13 -2 -25 -7
-10 -16 -16 -22 -13 -5 3 -6 1 -2 -5 3 -5 1 -12 -6 -14 -7 -3 -5 -7 6 -11 10
-4 15 -3 11 3 -10 16 1 12 15 -6 8 -8 9 -14 4 -13 -22 4 -26 -2 -11 -19 14
-15 15 -19 2 -19 -8 0 -12 4 -9 9 9 15 -3 8 -17 -9 -12 -14 -12 -15 0 -9 10 7
12 3 6 -13 -4 -13 -2 -21 5 -21 6 0 9 4 5 9 -3 5 0 13 6 17 7 4 9 3 5 -4 -3
-6 -2 -13 4 -17 6 -4 5 -13 -2 -25 -7 -10 -16 -16 -22 -13 -5 3 -6 1 -2 -5 3
-5 1 -12 -6 -14 -7 -3 -5 -7 6 -11 10 -4 15 -3 11 3 -10 16 1 11 16 -7 10 -11
10 -14 2 -9 -8 4 -13 1 -13 -9 0 -10 5 -13 12 -9 7 4 8 3 4 -5 -4 -6 -11 -9
-16 -6 -5 3 -12 0 -16 -6 -4 -8 -3 -9 4 -5 7 4 12 2 12 -4 0 -6 5 -8 13 -4 8
6 8 3 -1 -9 -8 -9 -11 -21 -7 -27 3 -5 -1 -13 -9 -16 -12 -5 -13 -9 -3 -19 9
-9 14 -10 19 -1 6 8 8 8 8 -1 0 -6 -4 -14 -10 -18 -5 -3 -7 -30 -5 -60 2 -30
0 -55 -5 -55 -5 0 -7 9 -5 20 2 11 -2 20 -8 20 -8 0 -8 3 1 9 11 7 11 9 -1 14
-11 4 -15 0 -12 -14 2 -10 7 -24 10 -29 3 -6 1 -10 -6 -10 -7 0 -4 -6 6 -14
11 -8 24 -12 29 -9 5 4 6 1 2 -5 -4 -6 -14 -8 -23 -5 -15 6 -16 5 -3 -9 8 -9
19 -13 24 -10 5 3 6 0 2 -7 -4 -6 -11 -9 -16 -6 -4 3 -14 -3 -21 -13 -13 -15
-12 -16 4 -3 12 9 17 10 17 2 0 -7 5 -9 13 -5 7 5 7 1 -3 -12 -22 -30 -24 -30
-16 -9 6 16 5 17 -5 8 -10 -10 -8 -18 12 -39 13 -15 19 -25 14 -21 -7 4 -11
-13 -11 -48 0 -32 4 -51 10 -48 5 3 6 1 2 -6 -4 -6 -11 -9 -16 -6 -5 3 -12 0
-16 -6 -4 -8 -3 -9 4 -5 7 4 12 2 12 -4 0 -6 5 -8 13 -4 8 6 8 3 -1 -9 -8 -9
-11 -21 -8 -26 4 -5 0 -13 -8 -18 -12 -7 -12 -10 0 -21 10 -10 14 -10 14 -1 0
7 3 10 6 6 3 -3 -1 -16 -10 -28 -14 -20 -14 -25 -1 -39 13 -15 13 -17 0 -17
-8 0 -12 4 -9 9 9 15 -3 8 -17 -9 -12 -14 -12 -15 0 -9 10 7 12 3 6 -13 -4
-13 -2 -21 5 -21 6 0 9 4 5 9 -3 5 0 13 6 17 7 4 9 3 5 -4 -3 -6 -2 -13 4 -17
6 -4 5 -13 -2 -25 -7 -10 -16 -16 -22 -13 -5 3 -6 1 -2 -5 3 -5 1 -12 -6 -14
-7 -3 -5 -7 6 -11 10 -4 15 -3 11 3 -10 16 1 12 15 -6 8 -8 9 -14 4 -13 -22 4
-26 -2 -11 -19 14 -15 15 -19 2 -19 -8 0 -11 5 -8 11 3 7 1 6 -7 -1 -15 -13
-4 -36 13 -27 7 4 9 4 5 -1 -4 -4 -3 -14 3 -22 9 -10 8 -13 0 -13 -7 0 -10 -4
-6 -9 3 -5 1 -12 -5 -16 -7 -4 -7 -13 1 -26 6 -12 8 -23 5 -27 -3 -3 -6 0 -6
6 0 6 -7 9 -16 5 -14 -5 -13 -8 7 -20 24 -14 24 -14 -6 -9 -16 3 -24 3 -17 0
6 -3 9 -11 5 -17 -10 -16 -12 -67 -3 -67 4 0 7 14 6 32 -1 20 4 33 14 36 12 4
12 2 3 -8 -8 -9 -9 -19 -3 -30 7 -13 5 -22 -5 -30 -8 -7 -12 -16 -9 -21 3 -5
0 -9 -6 -9 -6 0 -10 -8 -9 -17 3 -34 -1 -44 -13 -37 -7 4 -10 4 -6 -1 4 -4 0
-14 -10 -22 -16 -14 -16 -14 0 -9 14 4 17 0 14 -17 -3 -12 -5 -24 -6 -27 -2
-3 -2 -8 -1 -12 0 -4 -11 -11 -25 -14 -19 -5 -22 -9 -12 -15 11 -7 10 -11 -2
-19 -14 -9 -7 -14 13 -11 5 1 6 -3 2 -9 -4 -7 -13 -7 -27 1 -12 7 -18 7 -14 1
3 -6 3 -12 -1 -15 -5 -2 -3 -3 4 -1 9 2 10 -4 4 -35 -1 -2 -8 2 -17 9 -8 8
-14 9 -13 4 3 -20 -2 -35 -10 -29 -5 3 -13 0 -17 -6 -4 -8 -3 -9 4 -5 7 4 12
2 12 -4 0 -6 6 -8 13 -5 6 4 2 -2 -10 -13 -13 -11 -23 -25 -23 -31 0 -5 -5
-13 -12 -17 -7 -4 -8 -3 -4 4 4 7 2 12 -3 12 -6 0 -11 -4 -11 -10 0 -5 -8 -7
-17 -4 -10 2 -8 -1 4 -7 l22 -12 -24 -19 c-14 -11 -30 -16 -36 -12 -7 4 -9 3
-6 -3 7 -11 -27 -43 -46 -43 -8 0 -7 -4 3 -10 12 -8 10 -10 -9 -10 -17 0 -22
-4 -17 -16 3 -8 2 -12 -4 -9 -6 3 -10 1 -10 -5 0 -7 -7 -10 -15 -6 -18 7 -20
-5 -3 -23 11 -11 10 -12 -2 -5 -24 14 -39 13 -34 -1 3 -7 0 -16 -7 -21 -7 -4
-10 -3 -6 3 4 6 0 16 -7 22 -12 10 -13 9 -9 -7 2 -11 -1 -23 -8 -27 -8 -5 -10
-4 -5 3 4 7 2 12 -3 12 -6 0 -11 -9 -11 -21 0 -11 -4 -18 -9 -15 -5 3 -20 -3
-34 -14 -14 -11 -29 -20 -34 -20 -4 0 -1 5 7 10 9 6 10 10 3 10 -7 0 -17 -8
-23 -18 -11 -16 -11 -16 -6 0 3 10 0 20 -6 24 -7 5 -8 2 -3 -6 6 -10 4 -12
-10 -6 -16 6 -16 4 -4 -10 13 -16 12 -16 -8 -6 -16 9 -24 9 -29 1 -4 -8 -9 -7
-16 2 -6 10 -8 7 -6 -11 2 -16 -2 -24 -9 -23 -7 2 -13 -2 -13 -9 0 -6 -7 -3
-16 8 -8 10 -12 13 -8 5 5 -10 3 -12 -7 -5 -20 12 -40 14 -33 3 3 -5 9 -7 13
-5 4 3 8 -1 8 -9 0 -10 -4 -12 -12 -5 -7 5 -15 7 -18 3 -4 -3 -7 -2 -7 4 0 6
-7 14 -16 17 -10 4 -13 2 -8 -6 5 -8 2 -9 -10 -5 -11 4 -15 3 -11 -4 4 -6 14
-8 22 -5 8 3 12 2 9 -3 -6 -10 -72 -8 -82 2 -4 3 3 5 15 2 11 -2 21 1 21 7 0
5 -6 8 -14 5 -7 -3 -19 0 -26 6 -7 7 -10 7 -7 2 3 -6 -1 -18 -8 -28 -13 -18
-14 -17 -20 2 -3 12 -11 21 -16 21 -6 0 -8 -4 -5 -9 9 -14 -20 -21 -33 -8 -8
8 -11 8 -11 -1 0 -7 -4 -12 -10 -12 -5 0 -7 7 -4 15 4 8 1 15 -5 15 -6 0 -11
-4 -11 -10 0 -5 -7 -10 -16 -10 -8 0 -13 4 -10 8 3 5 -1 9 -9 9 -8 0 -12 -4
-10 -8 8 -12 -22 -18 -34 -6 -8 8 -11 8 -11 -1 0 -7 -4 -12 -10 -12 -5 0 -7 7
-4 15 4 8 1 15 -5 15 -6 0 -11 -4 -11 -10 0 -5 -7 -10 -16 -10 -8 0 -13 4 -10
8 3 5 -1 9 -9 9 -8 0 -12 -4 -10 -8 10 -15 -24 -17 -44 -2 -12 8 -28 12 -35
10 -8 -3 -19 0 -25 6 -9 9 -11 8 -6 -5 4 -11 2 -18 -4 -18 -6 0 -11 4 -11 9 0
4 -10 7 -22 7 -13 -1 -29 2 -36 7 -9 7 -11 6 -6 -7 3 -9 1 -16 -5 -16 -6 0
-11 4 -11 8 0 4 -9 8 -20 9 -20 2 -20 1 -2 -15 10 -9 12 -13 5 -8 -7 4 -19 6
-27 3 -7 -3 -19 0 -25 6 -8 8 -11 8 -11 -1 0 -7 -5 -12 -11 -12 -5 0 -8 4 -5
9 3 5 -1 14 -9 21 -13 11 -14 10 -9 -4 4 -11 1 -16 -11 -16 -9 0 -13 5 -10 10
10 16 -5 12 -23 -6 -14 -15 -17 -15 -29 2 -12 16 -13 16 -13 1 0 -9 -5 -17
-11 -17 -5 0 -8 4 -5 8 2 4 1 14 -5 22 -7 13 -9 12 -9 -2 0 -23 -19 -23 -36 0
-12 14 -13 14 -8 1 6 -19 -22 -34 -32 -17 -4 7 -3 8 4 4 7 -4 12 -2 12 3 0 16
-20 13 -26 -4 -4 -8 -10 -15 -15 -15 -4 0 -6 6 -3 14 4 10 0 13 -13 12 -10 -2
-24 1 -31 7 -9 7 -11 6 -6 -7 3 -9 1 -16 -5 -16 -6 0 -11 4 -11 9 0 12 -53 9
-62 -4 -5 -7 -11 -7 -15 0 -5 6 -15 11 -23 13 -10 3 -9 -3 5 -19 l20 -22 -22
14 c-13 8 -23 18 -23 23 0 6 -6 1 -14 -10 -10 -13 -14 -15 -13 -4 1 8 -2 15
-8 15 -5 0 -8 -6 -7 -14 2 -7 -1 -10 -7 -6 -6 3 -17 3 -23 -2 -23 -14 -61 -15
-52 -2 4 7 3 9 -4 6 -5 -4 -8 -16 -5 -27 3 -12 0 -20 -6 -20 -7 0 -9 -5 -5
-12 6 -10 4 -10 -8 0 -10 8 -19 9 -22 3 -4 -5 -2 -13 4 -16 8 -5 7 -11 -1 -21
-9 -12 -15 -12 -27 -2 -13 12 -14 10 -3 -11 7 -13 8 -21 3 -17 -6 3 -17 0 -25
-8 -8 -8 -17 -13 -20 -10 -3 3 -8 0 -13 -7 -4 -8 -3 -10 4 -5 7 4 12 2 12 -3
0 -6 -9 -11 -21 -11 -11 0 -18 -4 -14 -10 3 -5 11 -8 18 -7 7 2 2 -1 -10 -7
-13 -5 -23 -16 -23 -23 0 -7 -4 -13 -10 -13 -5 0 -7 8 -3 18 5 14 3 13 -10 -3
-8 -11 -13 -24 -9 -29 3 -5 -3 -6 -14 -2 -15 6 -17 5 -6 -5 18 -19 15 -34 -4
-19 -12 11 -15 11 -12 -1 2 -8 -3 -13 -9 -12 -7 2 -13 -2 -13 -8 0 -6 10 -8
23 -5 12 3 16 3 9 0 -6 -3 -10 -10 -7 -15 4 -5 -2 -6 -11 -2 -13 5 -15 3 -10
-8 4 -8 0 -5 -9 6 -17 20 -17 20 -10 -5 7 -23 7 -24 -10 -10 -17 14 -17 13 -7
-6 7 -14 7 -25 0 -35 -8 -11 -9 -10 -4 4 4 12 2 17 -6 14 -7 -2 -12 -10 -10
-17 1 -7 -2 -18 -8 -24 -5 -7 -9 -15 -7 -17 1 -2 0 -3 -2 -2 -9 6 -30 -20 -25
-31 3 -6 -2 -2 -11 9 -17 20 -17 20 -10 -3 4 -16 3 -22 -6 -20 -7 2 -14 -3
-15 -9 -1 -7 -2 -17 -3 -23 0 -5 -6 -10 -12 -10 -8 0 -8 4 0 14 8 10 9 16 1
21 -6 4 -9 1 -8 -7 2 -7 -3 -12 -10 -10 -8 1 -11 -2 -8 -7 3 -5 0 -14 -8 -20
-8 -7 -12 -22 -10 -34 2 -12 1 -16 -2 -9 -4 9 -12 2 -24 -20 -9 -18 -25 -33
-34 -33 -20 0 -36 -23 -29 -42 3 -7 -2 -13 -12 -13 -9 0 -13 4 -10 10 3 6 -1
7 -9 4 -14 -5 -14 -8 -1 -21 18 -18 19 -24 3 -20 -7 1 -12 -5 -10 -13 2 -8 0
-12 -3 -8 -4 4 -17 -4 -28 -18 -12 -15 -25 -23 -35 -19 -12 4 -12 3 -3 -8 9
-11 8 -17 -4 -27 -13 -11 -14 -10 -9 5 5 13 4 16 -4 11 -7 -4 -12 -16 -12 -28
0 -18 -2 -19 -17 -7 -15 13 -15 12 -4 -9 10 -20 9 -23 -11 -31 -13 -5 -27 -6
-32 -3 -5 3 -6 0 -2 -7 4 -6 13 -9 19 -5 7 3 4 -1 -5 -9 -10 -8 -15 -17 -12
-20 4 -4 -6 -5 -22 -4 -22 1 -29 -3 -32 -18 -2 -11 -9 -24 -14 -30 -8 -7 -8
-6 -3 4 5 9 3 12 -6 9 -22 -7 -37 33 -22 61 9 20 10 28 0 40 -10 12 -9 14 4 9
12 -5 15 0 15 17 -2 24 -16 48 -16 27 0 -7 -4 -12 -8 -12 -5 0 -8 12 -7 27 1
16 7 27 14 25 7 -1 9 2 5 9 -3 6 -8 23 -10 38 -1 14 -5 36 -8 47 -4 18 -1 21
17 17 22 -5 22 -5 -1 12 -16 12 -20 20 -13 29 11 13 8 76 -4 97 -5 8 -4 10 3
5 7 -4 12 -2 12 3 0 6 -4 11 -8 11 -10 0 -10 40 0 55 6 10 4 51 -6 91 -4 18
-1 21 17 17 22 -5 22 -5 -1 12 -16 12 -20 20 -13 29 6 7 8 30 5 52 -7 59 -7
67 1 91 4 13 12 20 19 17 6 -3 0 4 -14 15 l-25 21 30 -10 c25 -8 27 -8 14 2
-9 7 -17 18 -18 23 -4 26 -13 45 -22 45 -5 0 -2 -11 7 -25 9 -14 12 -25 6 -25
-5 0 -12 9 -15 21 -3 12 -10 18 -16 14 -15 -9 -14 8 2 25 10 12 9 12 -5 1 -12
-9 -18 -10 -18 -2 0 6 -5 11 -11 11 -5 0 -7 -4 -4 -10 3 -5 -1 -10 -10 -10 -9
0 -14 4 -11 8 2 4 -4 8 -14 8 -12 0 -16 -4 -10 -11 11 -13 -55 -13 -67 0 -5 4
-2 5 4 1 9 -5 11 -2 6 9 -3 9 -9 13 -12 8 -7 -11 -22 -10 -40 1 -10 6 -12 5
-7 -2 4 -7 3 -19 -2 -28 -8 -15 -10 -15 -15 0 -5 12 -3 15 6 10 9 -5 9 -4 0 6
-9 10 -15 9 -29 -5 -17 -16 -18 -16 -31 1 -12 16 -13 16 -13 1 0 -9 -5 -17
-11 -17 -5 0 -8 4 -5 8 2 4 1 14 -5 22 -7 13 -9 12 -9 -2 0 -23 -19 -23 -36
-1 -12 15 -13 15 -8 2 6 -19 -22 -34 -32 -17 -4 7 -3 8 4 4 7 -4 12 -2 12 3 0
16 -20 13 -26 -4 -4 -8 -10 -15 -15 -15 -4 0 -6 6 -3 14 4 10 0 13 -13 12 -10
-2 -24 1 -31 7 -9 7 -11 6 -6 -7 3 -9 1 -16 -5 -16 -6 0 -11 4 -11 9 0 4 -10
7 -22 7 -13 -1 -29 2 -36 7 -9 7 -11 6 -6 -7 3 -9 1 -16 -5 -16 -6 0 -11 4
-11 8 0 4 -9 8 -20 9 -20 2 -20 1 -2 -15 10 -9 12 -13 5 -8 -7 4 -19 6 -27 3
-7 -3 -19 0 -25 6 -8 8 -11 8 -11 -1 0 -7 -4 -12 -10 -12 -5 0 -7 7 -4 15 4 8
1 15 -5 15 -6 0 -11 -4 -11 -10 0 -5 -7 -10 -16 -10 -8 0 -13 4 -10 8 3 5 -1
9 -9 9 -8 0 -12 -4 -10 -8 8 -12 -22 -18 -34 -6 -8 8 -11 8 -11 -1 0 -7 -4
-12 -10 -12 -5 0 -7 7 -4 15 4 8 1 15 -5 15 -6 0 -11 -4 -11 -10 0 -5 -7 -10
-16 -10 -8 0 -13 4 -10 8 3 5 -1 9 -9 9 -8 0 -12 -4 -10 -8 10 -15 -24 -17
-44 -2 -12 8 -28 12 -35 10 -8 -3 -19 0 -25 6 -9 9 -11 8 -6 -5 4 -11 2 -18
-4 -18 -6 0 -11 4 -11 9 0 4 -10 7 -22 7 -13 -1 -29 2 -36 7 -9 7 -11 6 -6 -7
3 -9 1 -16 -5 -16 -6 0 -11 5 -11 12 0 6 -3 8 -7 5 -3 -4 -13 -1 -21 6 -10 8
-13 8 -9 1 4 -7 -1 -15 -11 -19 -21 -8 -28 -6 -25 6 2 5 -2 9 -7 9 -6 0 -10
-5 -10 -10 0 -6 -13 -8 -31 -5 -23 4 -29 2 -23 -7 5 -7 -5 -4 -21 6 -20 13
-30 15 -33 7 -2 -6 -8 -8 -14 -5 -6 4 -5 10 3 16 10 7 7 8 -9 5 -17 -4 -22 -2
-18 8 3 9 0 12 -9 9 -8 -3 -11 -13 -8 -22 7 -18 5 -17 -17 12 -8 11 -10 17 -3
13 6 -4 14 -4 16 0 3 5 -8 9 -25 10 -21 0 -26 -2 -17 -8 10 -6 7 -8 -10 -6
-14 2 -27 10 -29 18 -3 11 -1 11 7 -1 9 -13 11 -13 11 3 0 20 -11 22 -29 5
-11 -11 -13 -10 -8 4 4 12 2 15 -8 11 -8 -3 -12 -10 -8 -17 3 -6 -3 -3 -14 7
-11 9 -24 14 -28 10 -5 -5 -3 0 4 10 15 19 1 23 -18 5 -10 -11 -11 -9 -5 6 4
12 4 17 -2 13 -6 -3 -16 -1 -24 5 -12 8 -12 9 2 4 10 -3 19 -2 22 2 3 4 -9 9
-25 10 -22 2 -28 -1 -23 -10 4 -8 3 -10 -2 -5 -9 9 -10 13 -13 42 0 8 -6 15
-12 15 -5 0 -7 -4 -4 -10 3 -5 1 -10 -6 -10 -6 0 -9 8 -6 20 5 18 -3 25 -26
21 -4 0 -7 4 -7 9 0 6 -5 10 -11 10 -5 0 -7 -6 -3 -12 4 -7 -2 -5 -13 5 -11 9
-22 16 -24 15 -2 -2 -1 1 3 7 13 15 9 28 -7 22 -8 -4 -17 -2 -20 4 -4 5 -11 7
-16 3 -6 -3 -5 3 2 14 11 18 10 24 -4 40 -9 10 -14 22 -10 27 5 4 2 5 -5 1 -6
-4 -12 -2 -12 4 0 6 -4 8 -10 5 -6 -3 -10 -11 -10 -16 0 -6 4 -8 9 -5 5 3 14
-1 21 -9 9 -10 9 -15 1 -15 -6 0 -11 4 -11 10 0 5 -6 9 -13 7 -7 -1 -11 7 -10
20 2 14 -2 22 -10 20 -6 -1 -11 4 -9 10 1 7 -2 13 -8 13 -5 0 -10 4 -10 10 0
5 6 7 14 4 8 -3 17 0 21 6 4 6 1 11 -6 9 -32 -4 -49 2 -49 17 0 9 -5 12 -12 8
-7 -4 -8 -3 -4 5 6 8 12 9 20 2 9 -8 13 -7 13 4 0 7 -5 13 -11 12 -6 -1 -10 4
-8 11 1 8 -1 11 -5 9 -5 -3 -17 2 -28 10 -19 15 -19 15 5 8 22 -7 23 -6 11 8
-7 9 -17 15 -21 12 -4 -2 -5 8 -3 23 3 23 2 24 -6 7 -9 -19 -10 -19 -10 3 -1
12 -7 22 -13 22 -9 0 -8 4 2 10 13 9 8 14 -12 11 -3 0 -4 13 -1 29 3 20 0 30
-8 30 -7 0 -9 3 -6 6 4 4 15 1 24 -7 16 -13 17 -12 4 3 -7 10 -11 27 -8 37 3
13 1 18 -8 15 -7 -3 -16 0 -21 7 -4 7 -3 10 3 6 6 -4 14 0 17 9 3 8 2 12 -4 9
-6 -3 -10 0 -10 9 0 8 -3 16 -7 19 -5 2 -3 2 4 1 7 -2 15 2 19 8 4 6 3 8 -3 5
-6 -4 -14 0 -17 9 -3 8 -2 13 2 10 5 -3 7 5 6 17 -1 12 -3 26 -3 30 -1 5 -7 5
-14 1 -6 -4 -3 2 7 14 11 12 15 22 10 22 -5 0 -2 5 6 11 13 9 12 10 -2 5 -17
-5 -22 4 -19 33 2 8 -2 10 -11 5 -10 -6 -10 -4 1 9 12 15 12 19 -4 31 -13 9
-15 15 -6 20 6 4 8 12 5 18 -4 6 3 5 15 -2 18 -9 20 -14 10 -26 -7 -8 -7 -14
-1 -14 15 0 22 26 10 38 -8 8 -7 16 3 28 12 15 12 17 0 9 -11 -6 -13 -4 -8 8
7 20 -20 50 -36 40 -7 -3 -4 3 6 14 9 11 14 23 10 28 -5 4 -2 5 5 1 6 -4 12
-2 12 3 0 6 -5 11 -12 11 -6 0 -8 3 -5 7 4 3 -1 11 -10 18 -13 9 -13 14 -3 20
7 5 11 4 8 -1 -3 -5 6 -18 20 -28 l26 -20 -17 24 c-19 27 -22 44 -7 35 6 -3 7
1 4 10 -5 11 -10 13 -19 5 -10 -8 -15 -8 -21 1 -4 7 -3 9 4 5 6 -3 13 -2 16 3
4 5 2 12 -4 16 -5 3 -10 12 -10 18 0 7 4 6 10 -3 8 -12 10 -9 10 13 0 19 -4
26 -12 21 -7 -4 -8 -3 -4 5 6 9 11 9 22 0 8 -7 14 -7 14 -1 0 13 -29 24 -42
15 -7 -3 -8 -1 -4 5 4 7 16 12 26 12 10 0 22 5 26 11 4 7 0 9 -14 5 -23 -8
-39 8 -21 20 8 5 9 3 4 -6 -5 -8 -4 -11 3 -6 6 4 9 13 6 21 -4 8 -9 13 -13 10
-4 -2 -8 2 -8 10 0 13 3 13 18 -1 16 -15 17 -14 12 5 -3 12 -13 21 -22 22 -12
0 -11 2 4 8 19 8 19 8 -3 20 -17 9 -21 16 -13 25 6 7 7 16 3 21 -4 4 3 2 16
-4 19 -10 21 -15 11 -27 -7 -8 -7 -14 -1 -14 15 0 22 26 10 38 -8 8 -7 16 3
28 12 15 12 17 0 9 -11 -6 -13 -4 -8 8 7 20 -20 50 -36 40 -7 -3 -4 3 6 14 9
11 14 23 10 28 -5 4 -2 5 5 1 6 -4 12 -2 12 3 0 6 -5 11 -12 11 -6 0 -8 3 -5
7 4 3 -1 11 -10 18 -13 9 -13 14 -3 20 7 5 11 4 8 -1 -3 -5 6 -18 20 -28 l26
-20 -17 24 c-19 27 -22 44 -7 35 6 -3 7 1 4 10 -5 11 -10 13 -19 5 -10 -8 -15
-8 -21 1 -4 7 -3 9 4 5 6 -3 13 -2 16 3 4 5 2 12 -4 16 -5 3 -10 12 -10 18 0
7 4 6 10 -3 8 -12 10 -9 10 13 0 19 -4 26 -12 21 -7 -4 -8 -3 -4 5 4 6 11 9
16 6 5 -3 11 -1 14 4 4 5 -5 8 -19 7 -13 -2 -22 1 -19 5 3 5 14 9 24 9 10 0
22 5 26 11 4 7 0 9 -14 5 -23 -8 -39 8 -21 20 8 5 9 3 4 -6 -5 -8 -4 -11 3 -6
6 4 9 13 6 21 -4 8 -9 13 -13 10 -4 -2 -8 2 -8 10 0 13 3 13 18 -1 16 -15 17
-14 12 5 -3 12 -13 21 -22 22 -12 0 -11 2 4 8 19 8 19 8 -3 20 -17 9 -21 16
-13 25 6 7 7 16 3 21 -4 4 3 2 16 -4 19 -10 21 -15 11 -27 -7 -8 -7 -14 -1
-14 15 0 22 26 10 38 -8 8 -7 16 3 28 12 15 12 17 0 9 -11 -6 -13 -4 -8 8 7
20 -20 50 -36 40 -7 -3 -4 3 6 14 9 11 14 23 10 28 -5 4 -2 5 5 1 6 -4 12 -2
12 3 0 6 -5 11 -12 11 -6 0 -8 3 -5 7 4 3 -1 11 -10 18 -13 9 -13 14 -3 20 7
5 11 4 8 -1 -3 -5 6 -18 20 -28 l26 -20 -17 24 c-19 27 -22 44 -7 35 6 -3 7 1
4 10 -5 11 -10 13 -19 5 -10 -8 -15 -8 -21 1 -4 7 -3 9 4 5 6 -3 13 -2 16 3 4
5 2 12 -4 16 -5 3 -10 12 -10 18 0 7 4 6 10 -3 8 -12 10 -9 10 13 0 19 -4 26
-12 21 -7 -4 -8 -3 -4 5 6 9 11 9 22 0 8 -7 14 -7 14 -1 0 13 -29 24 -42 15
-7 -3 -8 -1 -4 5 4 7 16 12 26 12 10 0 22 5 26 11 4 7 0 9 -14 5 -23 -8 -39 8
-21 20 8 5 9 3 4 -6 -5 -8 -4 -11 3 -6 6 4 9 13 6 21 -4 8 -9 13 -13 10 -4 -2
-8 2 -8 10 0 13 3 13 18 -1 16 -15 17 -14 12 5 -3 12 -13 21 -22 22 -12 0 -11
2 4 8 19 8 19 8 -3 20 -17 9 -21 16 -13 25 6 7 7 16 3 21 -4 4 3 2 16 -4 19
-10 21 -15 11 -27 -7 -8 -7 -14 -1 -14 15 0 22 26 10 38 -8 8 -7 16 3 28 12
15 12 17 0 9 -11 -6 -13 -4 -8 8 7 18 -19 51 -33 42 -5 -3 -3 7 5 22 13 25 13
29 -2 41 -9 6 -11 12 -5 12 19 0 27 -4 25 -12 -2 -5 2 -8 7 -8 15 0 12 16 -5
34 -9 9 -14 26 -11 40 2 14 0 27 -5 30 -5 2 -4 3 3 2 7 -2 12 -9 11 -15 -2 -6
2 -11 7 -11 14 0 13 5 -10 50 -16 31 -17 38 -5 34 8 -3 14 -9 13 -12 -2 -17 3
-23 12 -17 8 5 7 11 -1 21 -8 10 -9 18 -2 25 12 12 5 51 -8 44 -4 -3 -6 -14
-4 -25 2 -11 0 -20 -6 -20 -5 0 -7 10 -5 23 3 12 5 22 7 22 1 0 8 34 11 63 1
6 10 12 20 12 10 0 18 5 18 11 0 5 -4 7 -10 4 -5 -3 -10 -1 -10 4 0 6 5 11 11
11 5 0 7 5 4 10 -4 6 -11 7 -17 4 -7 -4 -8 -2 -4 4 4 6 13 9 21 5 11 -3 13 -1
9 10 -3 8 -1 18 5 22 6 3 11 17 11 30 0 13 5 27 11 30 6 4 8 14 4 22 -4 13 -3
14 10 3 14 -12 14 -10 5 16 -6 16 -8 25 -4 21 4 -4 14 -1 23 5 13 10 14 10 4
-2 -7 -8 -13 -19 -13 -24 1 -21 24 30 25 54 2 39 14 54 31 39 13 -10 13 -8 4
15 -13 36 -13 43 2 23 10 -13 17 -14 28 -6 12 9 12 10 -4 5 -16 -5 -17 -4 -6
9 7 8 17 12 24 8 6 -4 4 2 -4 12 -14 17 -13 18 4 12 15 -6 17 -3 13 12 -3 15
-1 18 11 14 10 -4 13 -2 8 6 -5 7 -2 10 6 9 7 -2 12 5 12 14 -1 14 2 16 17 7
18 -9 23 -5 20 14 -1 6 14 11 30 9 4 -1 5 9 2 21 -4 18 -3 20 7 7 10 -13 11
-11 7 7 -3 15 -1 20 9 16 8 -3 12 -9 9 -13 -3 -5 0 -12 6 -16 8 -4 9 -3 5 4
-4 7 -2 12 5 12 7 0 4 6 -7 14 -13 10 -14 14 -4 13 8 -2 20 -6 26 -10 7 -4 10
2 9 17 -2 14 2 23 11 23 10 0 11 -4 3 -13 -7 -8 -6 -14 2 -20 7 -4 9 -3 5 4
-7 12 30 36 43 27 5 -3 7 3 5 12 -3 12 5 24 25 35 17 9 30 14 30 10 -3 -20 3
-22 17 -7 14 13 19 14 25 3 7 -10 9 -9 9 5 0 9 4 17 10 17 5 0 7 -8 4 -17 -5
-17 -5 -17 6 0 6 9 8 23 4 30 -5 8 -2 7 9 -2 9 -7 17 -10 17 -5 0 5 5 2 11 -6
9 -12 10 -10 6 8 -5 20 -3 21 10 10 13 -10 17 -10 20 -1 4 10 8 9 20 -2 16
-16 33 -12 33 8 0 8 -3 8 -9 -1 -6 -11 -10 -10 -15 4 -4 10 -4 15 0 11 4 -4
14 -1 22 6 13 9 14 9 8 0 -4 -8 -2 -13 4 -13 6 0 9 -4 6 -9 -3 -5 2 -15 11
-22 15 -12 16 -12 8 1 -13 21 -15 40 -4 40 5 0 10 -8 10 -17 1 -17 2 -17 6 0
3 11 14 17 31 16 33 -1 59 5 68 14 14 13 16 7 4 -8z m3370 -59 c0 -2 -7 -9
-15 -16 -13 -11 -14 -10 -9 4 5 14 24 23 24 12z m20 -26 c0 -5 -2 -10 -4 -10
-3 0 -8 5 -11 10 -3 6 -1 10 4 10 6 0 11 -4 11 -10z m505 -350 c3 -6 -1 -7 -9
-4 -18 7 -21 14 -7 14 6 0 13 -4 16 -10z m39 -69 c3 -5 -1 -11 -9 -14 -9 -4
-12 -1 -8 9 6 16 10 17 17 5z m-4773 -64 c-10 -9 -11 -8 -5 6 3 10 9 15 12 12
3 -3 0 -11 -7 -18z m-115 -49 c4 -7 3 -8 -4 -4 -7 4 -12 2 -12 -3 0 -6 5 -11
12 -11 6 0 9 -2 6 -5 -3 -3 -13 -3 -22 1 -13 5 -14 9 -5 20 14 17 16 17 25 2z
m4848 -153 c-4 -8 -11 -15 -16 -15 -6 0 -5 6 2 15 7 8 14 15 16 15 2 0 1 -7
-2 -15z m11 -45 c-3 -5 -12 -10 -18 -10 -7 0 -6 4 3 10 19 12 23 12 15 0z
m-4780 -220 c3 -6 -1 -7 -9 -4 -18 7 -21 14 -7 14 6 0 13 -4 16 -10z m0 -30
c3 -5 1 -10 -4 -10 -6 0 -11 5 -11 10 0 6 2 10 4 10 3 0 8 -4 11 -10z m4780
-178 c-3 -3 -11 0 -18 7 -9 10 -8 11 6 5 10 -3 15 -9 12 -12z m-4780 -272 c3
-6 -1 -7 -9 -4 -18 7 -21 14 -7 14 6 0 13 -4 16 -10z m0 -30 c3 -5 1 -10 -4
-10 -6 0 -11 5 -11 10 0 6 2 10 4 10 3 0 8 -4 11 -10z m0 -450 c3 -6 -1 -7 -9
-4 -18 7 -21 14 -7 14 6 0 13 -4 16 -10z m0 -30 c3 -5 1 -10 -4 -10 -6 0 -11
5 -11 10 0 6 2 10 4 10 3 0 8 -4 11 -10z m0 -450 c3 -6 -1 -7 -9 -4 -18 7 -21
14 -7 14 6 0 13 -4 16 -10z m0 -30 c3 -5 1 -10 -4 -10 -6 0 -11 5 -11 10 0 6
2 10 4 10 3 0 8 -4 11 -10z m0 -162 c6 -4 2 -8 -7 -8 -10 0 -18 7 -18 17 0 9
3 12 8 7 4 -5 12 -12 17 -16z m5 -52 c0 -3 -4 -8 -10 -11 -5 -3 -10 -1 -10 4
0 6 5 11 10 11 6 0 10 -2 10 -4z m10 -146 c0 -5 -2 -10 -4 -10 -3 0 -8 5 -11
10 -3 6 -1 10 4 10 6 0 11 -4 11 -10z m4821 -63 c-10 -9 -11 -8 -5 6 3 10 9
15 12 12 3 -3 0 -11 -7 -18z m19 -16 c-13 -26 -27 -34 -27 -16 0 8 4 12 8 10
4 -3 9 2 13 10 3 8 8 15 11 15 3 0 1 -9 -5 -19z m-4690 -415 c0 -11 -19 -15
-25 -6 -3 5 1 10 9 10 9 0 16 -2 16 -4z m160 -6 c0 -5 -5 -10 -11 -10 -5 0 -7
5 -4 10 3 6 8 10 11 10 2 0 4 -4 4 -10z m4280 -4 c0 -3 -4 -8 -10 -11 -5 -3
-10 -1 -10 4 0 6 5 11 10 11 6 0 10 -2 10 -4z m-123 -91 c0 -8 -4 -15 -9 -15
-10 0 -11 14 -1 23 9 10 10 9 10 -8z m-309 -58 c8 -10 6 -13 -9 -14 -19 -2
-25 8 -12 20 8 9 9 9 21 -6z m-3317 -44 c12 -16 12 -17 -2 -6 -9 7 -20 9 -24
5 -5 -4 -5 -1 -1 6 9 16 11 15 27 -5z m80 0 c13 -16 12 -17 -3 -5 -9 8 -23 10
-29 6 -8 -4 -9 -3 -5 4 10 17 21 15 37 -5z m79 13 c0 -2 -9 -6 -20 -9 -11 -3
-18 -1 -14 4 5 9 34 13 34 5z m401 -13 c13 -16 12 -17 -3 -5 -9 8 -23 10 -29
6 -8 -4 -9 -3 -5 4 10 17 21 15 37 -5z m329 7 c0 -5 -5 -10 -11 -10 -5 0 -7 5
-4 10 3 6 8 10 11 10 2 0 4 -4 4 -10z m1271 -7 c13 -16 12 -17 -3 -5 -9 8 -23
10 -29 6 -8 -4 -9 -3 -5 4 10 17 21 15 37 -5z m480 0 c13 -16 12 -17 -3 -5 -9
8 -23 10 -29 6 -8 -4 -9 -3 -5 4 10 17 21 15 37 -5z m79 13 c0 -2 -9 -6 -20
-9 -11 -3 -18 -1 -14 4 5 9 34 13 34 5z m734 -36 c-14 -15 -23 -17 -34 -9 -13
9 -12 10 2 5 17 -5 35 9 21 17 -5 2 -2 2 5 1 6 -2 12 2 12 8 0 6 3 8 7 4 4 -3
-2 -15 -13 -26z m-3559 -68 c-3 -3 -11 0 -18 7 -9 10 -8 11 6 5 10 -3 15 -9
12 -12z m55 -3 c0 -5 6 -7 13 -3 6 4 8 3 4 -1 -13 -15 -34 -14 -34 1 0 8 4 14
9 14 4 0 8 -5 8 -11z m3000 -1 c0 -4 -4 -8 -9 -8 -6 0 -12 4 -15 8 -3 5 1 9 9
9 8 0 15 -4 15 -9z m-2885 -8 c3 -5 1 -10 -4 -10 -6 0 -11 5 -11 10 0 6 2 10
4 10 3 0 8 -4 11 -10z m145 6 c0 -3 -4 -8 -10 -11 -5 -3 -10 -1 -10 4 0 6 5
11 10 11 6 0 10 -2 10 -4z m95 -6 c3 -5 1 -10 -4 -10 -6 0 -11 5 -11 10 0 6 2
10 4 10 3 0 8 -4 11 -10z m145 6 c0 -3 -4 -8 -10 -11 -5 -3 -10 -1 -10 4 0 6
5 11 10 11 6 0 10 -2 10 -4z m95 -6 c3 -5 1 -10 -4 -10 -6 0 -11 5 -11 10 0 6
2 10 4 10 3 0 8 -4 11 -10z m145 6 c0 -3 -4 -8 -10 -11 -5 -3 -10 -1 -10 4 0
6 5 11 10 11 6 0 10 -2 10 -4z m95 -6 c3 -5 1 -10 -4 -10 -6 0 -11 5 -11 10 0
6 2 10 4 10 3 0 8 -4 11 -10z m1505 6 c0 -3 -4 -8 -10 -11 -5 -3 -10 -1 -10 4
0 6 5 11 10 11 6 0 10 -2 10 -4z m95 -6 c3 -5 1 -10 -4 -10 -6 0 -11 5 -11 10
0 6 2 10 4 10 3 0 8 -4 11 -10z m145 6 c0 -3 -4 -8 -10 -11 -5 -3 -10 -1 -10
4 0 6 5 11 10 11 6 0 10 -2 10 -4z m95 -6 c3 -5 1 -10 -4 -10 -6 0 -11 5 -11
10 0 6 2 10 4 10 3 0 8 -4 11 -10z m145 6 c0 -3 -4 -8 -10 -11 -5 -3 -10 -1
-10 4 0 6 5 11 10 11 6 0 10 -2 10 -4z m-1030 -321 c0 -2 -9 -9 -19 -15 -14
-7 -22 -7 -27 2 -4 6 -3 8 2 5 6 -3 16 -2 24 4 17 10 20 11 20 4z m-238 -92
c-6 -2 -9 -10 -6 -15 4 -7 2 -8 -5 -4 -13 9 -5 26 12 25 9 0 8 -2 -1 -6z m-88
-109 c3 -8 2 -12 -4 -9 -6 3 -10 10 -10 16 0 14 7 11 14 -7z m-44 -205 c-7
-11 -14 -18 -17 -15 -3 3 0 12 7 21 18 21 23 19 10 -6z m-285 -7 c-3 -3 -11 0
-18 7 -9 10 -8 11 6 5 10 -3 15 -9 12 -12z m92 -66 c4 -4 1 -6 -7 -4 -8 2 -14
-3 -12 -10 1 -8 -2 -11 -8 -7 -15 10 -12 34 5 31 8 -1 18 -6 22 -10z m-133
-295 c3 -5 0 -14 -8 -20 -10 -9 -15 -8 -19 3 -4 11 -1 13 10 9 11 -4 14 -2 9
5 -4 7 -5 12 -2 12 3 0 7 -4 10 -9z"/>
<path d="M1753 4843 c0 -7 4 -13 8 -13 4 0 9 6 12 13 3 8 0 14 -7 14 -7 0 -13
-6 -13 -14z"/>
<path d="M2713 4843 c0 -7 4 -13 8 -13 4 0 9 6 12 13 3 8 0 14 -7 14 -7 0 -13
-6 -13 -14z"/>
<path d="M3673 4843 c0 -7 4 -13 8 -13 4 0 9 6 12 13 3 8 0 14 -7 14 -7 0 -13
-6 -13 -14z"/>
<path d="M4066 4846 c7 -19 20 -21 30 -3 4 6 4 9 -1 5 -4 -4 -14 -3 -22 4 -11
8 -12 7 -7 -6z"/>
<path d="M950 4840 c0 -5 5 -10 11 -10 5 0 7 5 4 10 -3 6 -8 10 -11 10 -2 0
-4 -4 -4 -10z"/>
<path d="M1491 4834 c0 -11 3 -14 6 -6 3 7 2 16 -1 19 -3 4 -6 -2 -5 -13z"/>
<path d="M1731 4834 c0 -11 3 -14 6 -6 3 7 2 16 -1 19 -3 4 -6 -2 -5 -13z"/>
<path d="M2451 4834 c0 -11 3 -14 6 -6 3 7 2 16 -1 19 -3 4 -6 -2 -5 -13z"/>
<path d="M2691 4834 c0 -11 3 -14 6 -6 3 7 2 16 -1 19 -3 4 -6 -2 -5 -13z"/>
<path d="M3411 4834 c0 -11 3 -14 6 -6 3 7 2 16 -1 19 -3 4 -6 -2 -5 -13z"/>
<path d="M3651 4834 c0 -11 3 -14 6 -6 3 7 2 16 -1 19 -3 4 -6 -2 -5 -13z"/>
<path d="M4157 4843 c-4 -3 -7 -11 -7 -16 0 -6 3 -7 7 -4 3 4 13 1 22 -6 14
-11 15 -10 1 8 -8 11 -15 21 -16 23 0 1 -4 -1 -7 -5z"/>
<path d="M614 4775 c-10 -8 -14 -15 -8 -15 6 0 17 7 24 15 16 19 9 19 -16 0z"/>
<path d="M4556 4662 c-3 -5 1 -9 9 -9 8 0 12 4 9 9 -3 4 -7 8 -9 8 -2 0 -6 -4
-9 -8z"/>
<path d="M267 4475 c-4 -8 -3 -16 1 -19 4 -3 9 4 9 15 2 23 -3 25 -10 4z"/>
<path d="M4766 4382 c-3 -5 1 -9 9 -9 8 0 12 4 9 9 -3 4 -7 8 -9 8 -2 0 -6 -4
-9 -8z"/>
<path d="M205 4349 c-4 -6 -5 -12 -2 -15 2 -3 7 2 10 11 7 17 1 20 -8 4z"/>
<path d="M2417 4271 c-14 -17 -28 -27 -32 -23 -5 4 -5 -1 -2 -10 4 -11 -3 -22
-19 -33 -14 -9 -22 -20 -19 -25 3 -4 -5 -6 -17 -3 -23 5 -23 5 -3 -11 19 -16
19 -16 -6 -7 -23 8 -26 7 -25 -12 1 -12 6 -28 10 -36 7 -10 5 -12 -4 -6 -8 5
-11 3 -8 -6 3 -8 11 -13 17 -11 7 1 10 -2 6 -8 -3 -6 -10 -8 -15 -5 -5 3 -12
0 -16 -6 -4 -8 -3 -9 4 -5 6 4 16 -4 23 -16 11 -21 11 -22 -5 -9 -9 8 -19 11
-23 7 -4 -3 2 -13 13 -20 14 -11 16 -17 7 -27 -6 -6 -9 -18 -6 -27 4 -10 2
-13 -5 -8 -6 3 -14 2 -17 -4 -4 -6 -3 -10 2 -9 28 5 36 -2 17 -16 -10 -8 -14
-15 -9 -15 6 0 3 -5 -5 -11 -12 -8 -11 -9 6 -5 15 5 21 2 21 -11 0 -10 -4 -23
-9 -30 -6 -7 -4 -14 3 -19 8 -5 9 -3 4 6 -5 9 -4 11 4 6 6 -4 9 -12 5 -17 -3
-5 -8 -7 -12 -5 -4 2 -13 -3 -21 -11 -12 -13 -11 -14 8 -8 21 6 22 5 11 -15
-7 -13 -8 -20 -2 -16 6 3 14 1 18 -5 4 -8 3 -9 -4 -5 -7 4 -12 3 -12 -3 0 -5
-3 -18 -7 -28 -5 -15 -4 -16 8 -6 12 10 14 4 13 -38 0 -27 -4 -52 -9 -56 -4
-5 -5 -2 0 6 5 9 4 12 -3 8 -5 -4 -9 -15 -7 -25 2 -9 4 -19 4 -22 1 -3 5 1 10
8 7 11 9 10 14 -3 4 -9 3 -13 -3 -10 -6 3 -10 2 -10 -4 0 -5 -3 -18 -7 -28 -6
-16 -5 -17 12 -3 17 13 18 13 10 0 -12 -19 -13 -33 -2 -41 5 -3 1 -9 -8 -12
-9 -4 -13 -3 -10 3 3 6 2 10 -3 10 -5 0 -12 -9 -15 -21 -3 -12 -10 -19 -15
-15 -5 3 -9 -1 -9 -9 0 -13 3 -13 18 1 11 10 19 12 24 5 6 -11 5 -12 -15 -15
-6 0 -15 -8 -20 -16 -7 -10 -10 -11 -10 -2 0 6 -4 12 -10 12 -5 0 -9 -5 -7
-12 1 -7 -7 -12 -18 -12 -11 0 -19 6 -17 13 1 7 -2 10 -6 7 -5 -3 -8 -16 -7
-29 2 -17 -2 -24 -14 -24 -52 0 -72 -4 -66 -13 4 -6 11 -7 17 -4 7 4 8 2 4 -4
-8 -13 -36 -5 -36 11 0 6 -3 7 -6 4 -4 -4 -1 -13 6 -22 11 -13 10 -14 -5 -9
-13 5 -16 4 -11 -4 4 -7 2 -12 -5 -12 -7 0 -20 -7 -29 -15 -15 -14 -18 -14
-23 -1 -4 10 -1 13 7 10 7 -3 18 1 24 9 9 11 8 14 -3 14 -8 0 -12 -5 -8 -10 3
-5 -3 -6 -15 -3 -19 6 -33 -9 -36 -39 -1 -5 -10 -9 -20 -7 -10 2 -16 0 -13 -5
3 -4 -15 -18 -40 -30 -36 -18 -45 -19 -50 -7 -3 8 -9 14 -14 14 -6 0 -5 -9 1
-20 11 -20 10 -21 -11 -24 -6 0 -18 -10 -26 -21 -11 -15 -14 -15 -10 -3 3 9 0
19 -8 22 -9 3 -12 0 -9 -8 3 -7 -3 -19 -13 -27 -16 -13 -17 -12 -4 4 15 19 2
24 -17 5 -10 -10 -17 -10 -35 1 -20 13 -21 13 -8 -3 13 -16 13 -17 -5 -14 -15
2 -19 -2 -18 -22 2 -23 1 -24 -13 -5 -15 20 -15 19 -10 -2 3 -12 2 -22 -2 -21
-3 0 -10 -1 -16 -2 -5 -2 -26 -3 -45 -4 -19 -1 -33 -3 -31 -6 8 -9 -20 -51
-29 -45 -5 3 -12 0 -15 -5 -5 -8 -14 -5 -27 7 -15 13 -19 14 -16 3 2 -9 -4
-14 -16 -13 -13 1 -15 -2 -7 -10 7 -7 15 -6 26 3 9 7 15 8 15 2 0 -6 -9 -13
-19 -17 -14 -4 -18 -11 -14 -23 6 -14 5 -15 -9 -2 -9 8 -13 20 -10 25 3 6 1 6
-4 2 -5 -5 -10 -13 -10 -18 -3 -22 -5 -23 -13 -10 -7 12 -13 12 -24 3 -7 -7
-18 -8 -22 -4 -5 4 -5 1 -1 -6 6 -9 11 -10 20 -3 9 8 13 7 13 -3 0 -14 -14
-14 -52 -1 -20 8 -20 7 -1 -7 19 -15 19 -16 -5 -28 -21 -12 -22 -11 -12 2 10
12 10 15 -1 15 -9 0 -13 -9 -11 -24 1 -12 -4 -28 -11 -34 -8 -6 -11 -16 -8
-21 4 -6 -4 -5 -16 2 -15 8 -20 8 -16 1 4 -6 2 -11 -4 -11 -7 0 -5 -6 4 -15
15 -16 12 -45 -5 -45 -5 0 -9 -5 -9 -11 0 -6 7 -8 16 -5 9 3 12 2 9 -5 -4 -6
-13 -8 -21 -5 -7 3 -16 0 -20 -6 -4 -6 -3 -8 4 -4 6 3 14 2 17 -4 5 -8 12 -7
23 2 15 12 16 11 4 -4 -8 -9 -20 -14 -28 -11 -8 3 -14 0 -14 -6 0 -6 3 -10 8
-10 20 3 23 -3 11 -18 -7 -10 -10 -15 -5 -11 4 4 13 2 20 -3 6 -5 20 -16 31
-24 14 -10 15 -13 4 -9 -10 3 -19 1 -23 -4 -6 -11 24 -9 43 3 9 5 12 4 8 -1
-3 -6 3 -16 15 -23 15 -9 18 -10 12 0 -5 9 -1 10 17 6 23 -6 24 -6 4 10 l-20
16 20 -8 c40 -14 64 -13 57 3 -4 11 -2 13 8 7 8 -5 26 -10 40 -11 14 -1 19 0
12 3 -6 3 -10 9 -6 14 3 5 13 5 25 -1 14 -8 19 -8 17 1 -2 6 7 13 20 15 16 3
21 0 16 -8 -4 -7 -3 -8 4 -4 6 4 9 13 5 22 -4 11 -9 12 -19 3 -9 -7 -14 -8
-14 -1 0 18 24 20 44 3 18 -15 19 -15 14 6 -4 15 -2 20 8 16 8 -3 12 -8 10
-12 -3 -4 0 -13 6 -21 8 -12 9 -11 4 3 -5 15 -2 17 13 12 11 -3 22 -1 26 4 3
6 0 8 -8 5 -8 -3 -20 3 -28 13 -13 17 -13 17 4 4 16 -13 20 -13 28 0 5 8 9 10
9 5 0 -5 10 -1 22 10 19 15 20 16 9 2 -10 -13 -10 -18 -2 -18 7 0 9 -5 5 -11
-4 -8 -9 -7 -16 2 -8 12 -9 12 -6 0 5 -17 38 -24 35 -8 -1 7 4 11 11 9 8 -1
11 2 7 8 -3 6 -11 8 -16 5 -5 -3 -6 1 -3 9 5 14 8 14 21 0 10 -9 19 -11 27 -6
6 5 19 8 29 7 9 -2 15 1 11 6 -3 5 -10 6 -16 3 -6 -4 -8 -2 -4 4 4 7 17 8 35
2 23 -6 28 -5 27 7 -1 17 30 27 39 13 3 -5 -4 -7 -16 -5 -12 2 -19 1 -15 -2 4
-4 18 -8 32 -9 24 -1 24 0 8 24 -11 17 -12 22 -3 16 18 -11 29 -12 56 -2 13 4
25 3 28 -2 4 -6 13 -7 23 -1 9 4 25 7 35 6 9 -2 15 0 12 5 -3 4 3 14 12 21 15
12 16 12 11 -2 -5 -13 -2 -16 13 -12 10 3 19 10 19 15 0 5 -5 6 -12 2 -7 -4
-8 -3 -4 5 4 6 11 9 16 6 4 -3 10 -2 13 2 2 5 3 3 1 -3 -1 -7 8 -9 24 -7 15 3
37 5 49 6 12 0 19 5 17 9 -3 4 2 8 10 8 9 0 16 5 16 11 0 5 -4 8 -8 5 -5 -3
-9 1 -9 9 0 13 3 13 18 -1 13 -12 18 -12 22 -2 4 8 6 7 6 -4 1 -10 -4 -18 -11
-18 -6 0 -8 -3 -5 -6 4 -4 12 -2 20 4 9 8 17 8 27 0 12 -8 12 -9 -3 -4 -11 3
-16 2 -12 -4 3 -6 14 -10 23 -11 12 0 11 -3 -5 -9 -23 -10 -32 -30 -12 -30 5
0 8 4 5 9 -7 11 21 8 31 -4 4 -4 3 -5 -4 -1 -14 8 -27 -10 -13 -19 14 -9 1
-28 -14 -22 -17 7 -13 -32 5 -44 10 -8 8 -9 -8 -4 -14 4 -23 2 -23 -4 0 -6 3
-10 8 -10 4 1 14 1 22 0 13 -1 13 -2 0 -11 -10 -6 -11 -10 -2 -10 6 0 12 -5
12 -11 0 -6 -6 -9 -14 -6 -18 7 -13 -33 6 -45 7 -4 9 -8 5 -8 -4 0 -3 -9 4
-21 8 -16 8 -24 -1 -33 -8 -8 -10 -7 -5 5 3 9 -3 26 -15 40 l-21 24 15 -26 c9
-14 13 -28 10 -31 -3 -4 1 -17 10 -30 11 -17 12 -27 5 -38 -9 -13 -10 -13 -6
1 6 18 -10 39 -28 39 -5 0 -3 -5 6 -10 10 -6 15 -20 14 -35 -2 -14 1 -23 6
-19 5 3 8 -5 6 -18 -1 -14 3 -22 11 -20 6 1 12 -2 12 -8 0 -5 -4 -10 -8 -10
-5 0 -17 -6 -27 -14 -18 -13 -17 -14 7 -11 20 2 25 -1 23 -13 -2 -10 -4 -18
-5 -19 -2 -2 -4 -7 -5 -13 -1 -5 -3 -11 -5 -12 -1 -2 -3 -12 -5 -23 -2 -11 -9
-21 -15 -23 -5 -2 -7 -9 -3 -15 4 -7 0 -6 -10 1 -14 12 -16 11 -12 -7 2 -11
-1 -24 -7 -27 -7 -4 -8 -2 -4 4 4 7 2 12 -5 12 -6 0 -9 -8 -6 -19 4 -16 0 -19
-27 -15 -17 2 -26 0 -21 -4 15 -10 18 -35 4 -26 -8 5 -10 2 -7 -8 5 -11 0 -14
-18 -10 -14 2 -24 0 -24 -7 0 -7 4 -10 9 -6 5 3 13 1 16 -5 4 -6 3 -9 -2 -8
-4 1 -18 -2 -31 -6 -22 -7 -23 -8 -5 -23 10 -8 12 -12 5 -8 -16 8 -52 -3 -52
-16 0 -6 6 -7 13 -3 8 5 7 2 -2 -9 -11 -14 -16 -15 -29 -5 -13 11 -14 10 -4
-9 12 -22 1 -40 -17 -28 -5 3 -12 1 -16 -5 -4 -6 -11 -7 -17 -4 -7 4 -8 2 -4
-5 4 -6 11 -9 16 -6 4 3 11 -2 14 -11 8 -21 8 -24 -5 -24 -5 0 -7 4 -4 10 4 6
-1 7 -11 3 -12 -4 -14 -8 -5 -11 9 -3 8 -11 -5 -30 -9 -15 -13 -24 -9 -20 11
11 36 -12 28 -25 -4 -6 0 -8 9 -4 12 4 15 -1 14 -23 -1 -16 2 -27 6 -24 4 3 8
14 8 24 0 10 4 21 10 25 5 3 8 -6 6 -23 -3 -20 0 -29 10 -29 8 0 13 6 10 13
-3 8 0 16 6 20 6 4 8 3 4 -4 -3 -6 -2 -13 4 -17 5 -3 10 2 10 12 1 17 1 17 11
0 10 -17 12 -17 35 -2 14 9 29 13 34 10 6 -3 7 1 4 10 -6 14 -8 14 -25 -1 -11
-9 -19 -13 -19 -8 0 5 -5 2 -11 -6 -9 -13 -10 -13 -6 0 2 8 10 14 16 13 6 -2
16 6 23 16 11 18 13 18 23 4 10 -13 14 -13 20 -3 6 9 4 11 -6 5 -8 -5 -11 -4
-6 1 5 5 14 9 20 9 7 1 11 7 9 14 -1 7 2 10 8 6 6 -3 8 -11 5 -16 -3 -5 2 -6
11 -2 11 4 15 3 11 -4 -10 -16 14 -10 42 9 13 10 29 14 34 11 6 -3 7 -1 3 6
-4 6 -12 9 -17 6 -5 -4 -9 -2 -9 3 0 17 50 11 51 -7 0 -11 3 -9 9 7 5 12 14
22 20 22 6 0 8 5 4 12 -4 6 -3 8 4 4 5 -3 12 -3 15 1 2 5 2 2 1 -4 -2 -7 4
-13 12 -13 8 0 12 4 9 10 -3 6 1 7 9 4 9 -3 13 -11 9 -17 -4 -6 -1 -7 7 -2 8
5 18 1 27 -10 7 -11 13 -13 13 -7 0 16 37 15 43 0 3 -10 8 -9 22 2 11 9 16 10
11 3 -7 -12 5 -18 28 -14 5 1 6 -5 3 -13 -7 -18 9 -31 18 -16 10 16 28 12 21
-5 -3 -8 -1 -15 4 -15 6 0 10 8 10 18 0 14 2 15 9 2 6 -8 7 -18 4 -24 -3 -5
-1 -6 5 -2 6 3 9 16 7 28 -3 11 -1 17 3 14 4 -4 7 -11 7 -14 2 -21 18 -52 27
-52 6 0 5 7 -3 17 -13 15 -12 15 6 6 11 -6 26 -8 33 -6 6 3 12 0 12 -5 0 -6
11 -9 24 -8 19 2 23 -1 19 -13 -5 -12 -1 -11 14 4 11 11 18 25 16 31 -2 7 1
15 8 20 8 4 10 3 5 -4 -4 -7 -2 -10 7 -6 23 8 17 35 -7 29 -19 -5 -19 -4 -5 7
9 7 14 19 12 26 -3 6 -1 12 4 12 6 0 9 10 8 23 -1 15 -8 21 -21 19 -18 -2 -18
-2 -1 12 14 11 15 15 4 19 -8 3 -20 0 -26 -6 -10 -9 -12 -9 -9 3 2 8 -3 14
-10 12 -8 -1 -11 2 -7 7 3 6 -3 15 -14 21 -13 7 -18 16 -14 27 4 10 2 14 -5 9
-6 -3 -13 -2 -17 4 -4 6 -10 8 -14 6 -12 -8 -10 27 3 43 9 12 8 12 -10 3 -24
-13 -46 1 -37 24 3 9 -2 12 -19 9 -23 -4 -23 -4 -3 12 20 15 20 15 -3 10 -13
-3 -20 -1 -16 5 4 6 -2 8 -17 3 -23 -7 -23 -6 -5 7 13 11 16 17 7 22 -6 4 -9
11 -6 16 3 5 1 11 -4 14 -5 4 -13 1 -17 -5 -5 -8 -3 -9 6 -4 9 6 11 4 5 -5 -4
-7 -2 -16 6 -21 9 -6 10 -9 2 -9 -20 0 -32 32 -22 58 8 21 7 23 -13 18 -13 -3
-17 -3 -10 0 10 5 10 9 0 22 -12 15 -11 16 5 3 16 -13 17 -11 12 25 -5 36 -5
38 10 20 8 -11 17 -17 20 -14 3 3 -1 11 -9 17 -8 7 -12 20 -9 29 3 12 2 13 -4
5 -6 -9 -12 -6 -22 10 -13 19 -12 21 1 9 12 -10 17 -10 25 0 17 22 26 45 10
26 -17 -21 -23 -23 -24 -5 0 6 -4 19 -7 28 -8 19 20 34 30 17 5 -7 2 -8 -6 -3
-9 6 -11 4 -5 -5 6 -9 4 -11 -5 -5 -8 5 -11 4 -6 -3 10 -17 35 -3 33 18 -1 10
-5 16 -11 13 -5 -4 -7 3 -4 15 4 14 2 19 -7 16 -7 -3 -16 0 -20 6 -3 6 -1 9 6
8 6 -2 14 3 17 11 3 8 0 11 -7 7 -7 -5 -9 -1 -4 10 5 13 3 15 -7 9 -9 -5 -11
-4 -6 4 6 9 11 9 22 0 8 -6 17 -9 21 -5 3 3 1 6 -5 6 -7 0 -12 7 -12 16 0 8
-4 13 -9 10 -5 -3 -12 1 -15 10 -3 8 -2 12 3 9 11 -6 9 35 -2 52 -4 6 -3 14 3
18 5 3 10 11 10 16 0 6 -4 8 -9 4 -5 -3 -12 -1 -16 4 -3 6 3 8 15 6 15 -3 20
1 20 16 0 14 4 18 13 13 9 -6 9 -4 -1 8 -8 10 -9 19 -3 22 5 3 11 2 13 -2 1
-5 11 -1 21 8 14 14 15 20 6 26 -8 5 -10 3 -4 -6 6 -10 4 -12 -7 -7 -17 6 -53
-25 -41 -36 3 -4 1 -7 -5 -7 -15 0 -16 17 -2 25 6 4 7 11 4 17 -4 6 -2 8 4 4
6 -3 15 2 21 11 6 10 11 14 11 10 0 -4 8 -3 18 2 13 7 23 6 31 -2 9 -9 14 -9
20 2 7 11 10 9 16 -8 3 -12 10 -19 15 -16 5 3 16 -2 24 -11 12 -11 16 -12 16
-2 0 10 3 10 9 -2 6 -8 8 -17 5 -21 -2 -4 1 -11 7 -15 8 -4 9 -3 5 4 -4 7 -1
12 9 12 10 0 13 5 9 13 -5 8 -2 8 9 -2 13 -11 17 -11 17 -1 0 8 3 10 7 6 4 -4
-3 -16 -17 -27 -25 -20 -25 -20 -1 -9 19 10 25 9 32 -1 6 -10 9 -10 9 -2 0 7
7 10 15 7 13 -5 13 -9 3 -22 -7 -9 0 -6 16 6 20 15 33 19 41 12 8 -6 15 -6 23
2 9 9 12 9 12 0 0 -11 -13 -16 -32 -13 -5 0 -8 -4 -8 -10 0 -6 7 -9 15 -5 8 3
26 1 40 -4 16 -6 27 -6 31 2 4 6 3 8 -2 5 -6 -3 -16 -1 -24 4 -11 7 -9 8 9 6
13 -2 35 -15 49 -28 17 -16 24 -19 20 -7 -10 24 21 16 44 -13 12 -14 18 -17
15 -7 -3 9 1 19 9 22 7 3 13 2 13 -2 -5 -31 2 -43 22 -37 12 4 19 3 16 -2 -3
-5 3 -9 14 -9 19 0 19 1 2 13 -9 8 -22 12 -29 9 -6 -2 -11 2 -11 9 0 8 5 13
11 12 10 -2 17 -7 50 -34 17 -14 30 -17 22 -5 -2 4 4 8 14 8 18 0 18 -1 2 -20
-12 -15 -12 -17 -2 -10 8 6 21 9 28 8 6 -1 19 -2 27 -3 8 0 15 -9 16 -18 0
-13 2 -14 6 -4 3 8 -2 20 -13 28 -10 7 -13 13 -6 13 6 0 18 -10 26 -22 9 -12
16 -17 16 -11 0 7 9 11 19 10 11 0 17 -5 15 -9 -3 -5 -11 -5 -17 -1 -7 4 -6 0
2 -10 7 -9 19 -17 25 -17 6 0 4 5 -4 10 -12 8 -9 10 13 10 15 0 27 -4 27 -10
0 -5 7 -7 15 -4 11 5 13 2 9 -10 -5 -12 -2 -15 10 -10 9 3 14 9 11 13 -2 4 5
7 17 6 11 -1 26 -12 33 -25 12 -23 13 -23 19 -3 3 11 12 20 19 20 35 1 57 16
57 38 0 6 -5 3 -11 -5 -9 -12 -9 -11 -4 5 4 11 8 25 8 32 0 6 7 9 15 6 11 -5
11 -7 0 -14 -11 -7 -10 -10 1 -21 9 -8 12 -9 7 -1 -3 6 2 16 11 22 11 6 13 11
5 11 -7 0 -11 4 -7 9 3 5 0 13 -6 17 -8 5 -9 3 -4 -6 5 -9 4 -11 -3 -6 -9 5
-9 13 -2 26 7 13 6 20 -2 22 -8 3 -6 7 4 11 13 4 16 1 12 -18 -3 -15 2 -25 12
-29 13 -5 14 -3 7 6 -6 7 -9 21 -8 30 2 10 -1 20 -6 24 -5 3 -6 10 -3 16 4 7
2 8 -5 4 -6 -4 -9 -12 -6 -17 4 -5 4 -9 1 -9 -3 0 -10 10 -17 21 -8 15 -8 19
0 15 6 -4 11 -2 11 3 0 6 -5 11 -11 11 -14 0 -39 26 -32 34 3 3 11 -2 18 -11
9 -13 14 -13 20 -3 5 8 4 11 -2 7 -6 -4 -13 0 -16 7 -3 8 -3 17 1 19 4 2 2 2
-5 1 -6 -2 -14 0 -16 4 -2 4 -2 2 -1 -5 2 -6 -3 -14 -10 -16 -9 -4 -12 3 -10
20 1 14 -4 27 -12 30 -8 3 -11 10 -7 16 4 6 1 7 -7 2 -10 -6 -10 -11 3 -20 9
-7 14 -15 11 -18 -8 -7 -34 18 -34 32 0 6 -4 11 -10 11 -5 0 -7 -8 -4 -17 5
-17 5 -17 -6 0 -6 9 -15 15 -21 12 -5 -4 -12 1 -15 9 -3 9 -11 13 -18 9 -6 -4
-4 2 4 12 14 17 14 18 -7 7 -16 -9 -24 -9 -29 0 -4 6 -3 8 4 4 6 -3 14 -2 17
4 4 6 3 10 -2 9 -26 -5 -63 2 -58 11 3 6 -1 10 -10 10 -10 0 -13 5 -9 13 6 9
4 9 -8 -1 -13 -10 -18 -10 -24 -1 -5 8 -3 9 6 4 8 -5 11 -4 6 3 -4 6 -13 9
-21 5 -10 -3 -15 2 -15 16 0 12 -4 21 -9 21 -5 0 -7 -10 -5 -22 4 -18 1 -16
-11 7 -8 17 -13 22 -11 13 3 -10 0 -20 -6 -24 -7 -5 -8 -2 -3 6 6 10 4 12 -10
6 -15 -5 -16 -4 -6 8 9 11 9 16 0 22 -8 4 -9 3 -5 -4 4 -7 2 -12 -3 -12 -6 0
-11 5 -11 10 0 6 -4 10 -10 10 -5 0 -8 -6 -6 -12 1 -7 1 -10 -1 -5 -3 4 -9 5
-14 1 -5 -3 -8 0 -7 6 2 7 -5 14 -15 15 -26 5 -31 11 -12 19 11 4 14 2 9 -7
-4 -6 -4 -9 1 -5 4 4 14 3 22 -3 7 -6 13 -8 13 -4 0 17 -35 33 -55 25 -13 -5
-28 -4 -36 2 -11 8 -11 9 3 4 10 -3 19 -2 22 2 2 4 -6 9 -20 10 -13 1 -24 -3
-24 -10 0 -6 -3 -8 -6 -5 -4 4 -1 13 5 21 13 15 -1 32 -18 21 -5 -3 -16 2 -24
10 -18 17 -27 19 -27 6 0 -11 39 -26 60 -23 13 2 13 1 1 -7 -16 -10 -71 12
-71 28 0 5 -10 8 -23 7 -14 -2 -24 2 -24 10 0 7 3 11 7 9 4 -2 7 2 7 10 0 8
-4 12 -8 10 -3 -3 -12 2 -19 10 -7 8 -17 15 -22 15 -6 0 0 -8 12 -18 20 -16
21 -19 6 -31 -14 -12 -16 -11 -10 4 6 14 4 16 -6 10 -9 -5 -11 -4 -6 3 4 7 1
12 -8 12 -9 0 -16 9 -16 20 0 23 0 23 -34 10 -17 -6 -27 -6 -32 2 -5 7 -3 8 6
3 9 -6 11 -4 6 4 -5 7 -15 10 -23 7 -11 -5 -13 -1 -8 17 7 22 7 22 -8 2 -16
-20 -16 -20 -30 0 -9 11 -14 22 -12 25 2 3 -8 6 -21 6 -23 2 -24 1 -7 -13 17
-13 16 -13 -4 -4 -14 7 -21 18 -18 31 2 11 0 18 -6 15 -5 -4 -9 -14 -10 -23 0
-14 -2 -13 -8 3 -5 12 -4 23 3 28 7 6 5 7 -6 3 -9 -2 -19 0 -21 7 -2 7 -3 4
-2 -5 4 -22 -11 -24 -19 -2 -3 9 -11 12 -18 8 -10 -6 -9 -3 0 9 12 15 11 15
-20 7 -30 -9 -31 -8 -14 5 12 9 15 15 7 15 -11 0 -11 3 0 17 12 14 12 15 0 9
-8 -5 -16 -3 -21 5 -10 15 -4 29 13 29 7 0 6 -4 -3 -10 -9 -6 -10 -10 -3 -10
6 0 14 4 17 8 7 12 -10 36 -21 29 -5 -3 -10 0 -10 8 0 8 5 11 10 8 12 -7 27
16 20 34 -3 7 -13 13 -22 13 -9 1 -3 7 14 15 28 13 29 14 9 20 -14 4 -21 14
-20 28 1 12 -3 28 -8 36 -8 11 -8 13 2 7 7 -4 15 -1 18 8 3 9 10 13 15 10 15
-9 10 3 -8 17 -14 12 -16 12 -8 0 5 -10 4 -12 -3 -7 -17 10 -15 26 2 26 8 0
18 5 22 12 5 8 2 9 -9 5 -10 -3 -17 -2 -17 4 0 5 7 12 16 16 14 5 13 8 -7 18
l-22 13 23 7 c23 7 23 8 -11 27 -19 10 -25 16 -14 14 11 -3 27 -1 35 5 12 8
12 9 -4 7 -12 -2 -20 4 -21 15 -2 9 1 17 6 17 11 0 9 69 -3 76 -5 3 -4 12 2
19 7 8 9 19 6 24 -4 5 1 14 10 19 15 8 15 10 0 15 -10 4 -15 3 -11 -3 3 -6 1
-10 -4 -10 -14 0 -14 13 0 27 8 8 7 13 -2 18 -8 6 -10 4 -4 -5 5 -8 4 -11 -3
-6 -15 9 -3 38 12 29 6 -3 7 -2 3 3 -5 5 -14 9 -20 9 -7 1 -11 6 -9 13 1 7 -3
12 -8 12 -14 0 -13 -13 3 -29 10 -10 9 -11 -5 -6 -16 7 -22 25 -19 65 0 12 -1
12 -6 1 -4 -10 -9 -8 -20 10 -10 17 -13 18 -8 4 3 -11 3 -16 -1 -12 -4 4 -14
1 -22 -6 -13 -9 -14 -9 -8 1 4 7 2 12 -5 12 -6 0 -9 8 -6 20 3 11 1 18 -4 14
-5 -3 -9 -13 -10 -22 0 -14 -2 -13 -9 3 -5 11 -9 14 -9 7 -1 -7 -5 -11 -10 -8
-5 4 -12 0 -14 -6 -4 -10 -6 -10 -6 0 -1 6 -6 12 -12 12 -5 0 -7 -6 -3 -12 4
-7 -2 -5 -14 6 -12 10 -19 23 -16 27 12 20 -6 7 -29 -20z m22 -12 c-22 -14
-33 -10 -19 6 7 8 17 12 22 9 6 -4 5 -10 -3 -15z m-124 -118 c3 -5 2 -12 -3
-15 -5 -3 -9 1 -9 9 0 17 3 19 12 6z m2 -217 c-3 -3 -12 -4 -19 -1 -8 3 -5 6
6 6 11 1 17 -2 13 -5z m370 -300 c-3 -3 -12 -4 -19 -1 -8 3 -5 6 6 6 11 1 17
-2 13 -5z m290 -278 c0 -8 -6 -12 -15 -9 -11 5 -11 7 0 14 7 5 13 9 14 9 0 0
1 -6 1 -14z m-1229 -150 c-2 -1 -10 -7 -19 -14 -13 -10 -18 -10 -22 0 -3 8 5
14 20 14 13 1 23 1 21 0z m-131 -70 c4 -4 4 -7 -2 -6 -22 5 -29 -1 -15 -11 12
-8 12 -10 1 -7 -18 5 -23 37 -5 34 7 -1 17 -6 21 -10z m605 -185 c8 12 9 12 6
0 -5 -17 -35 -23 -45 -9 -3 7 -1 8 5 4 7 -4 12 -1 13 6 0 10 2 10 6 -1 5 -11
7 -11 15 0z m-154 -42 c-2 -6 -6 -9 -8 -8 -3 1 -14 -3 -26 -9 -16 -8 -21 -8
-21 2 0 8 10 12 24 10 13 -1 23 2 23 7 0 5 3 9 6 9 3 0 4 -5 2 -11z m892 1 c9
-6 17 -5 23 3 6 8 7 7 4 -3 -2 -8 -11 -13 -18 -11 -8 2 -20 4 -26 4 -7 0 -13
4 -13 9 0 11 11 10 30 -2z m-1168 -67 c-6 -2 -9 -10 -6 -15 4 -7 2 -8 -5 -4
-13 9 -5 26 12 25 9 0 8 -2 -1 -6z m552 -29 c3 -8 2 -12 -4 -9 -6 3 -10 10
-10 16 0 14 7 11 14 -7z m-1034 -34 c0 -5 -2 -10 -4 -10 -3 0 -8 5 -11 10 -3
6 -1 10 4 10 6 0 11 -4 11 -10z m201 -9 c6 10 9 10 9 2 0 -7 -9 -17 -19 -22
-17 -9 -18 -8 -13 11 3 14 7 17 10 9 4 -11 6 -11 13 0z m34 -1 c3 -5 1 -10 -4
-10 -6 0 -11 5 -11 10 0 6 2 10 4 10 3 0 8 -4 11 -10z m-102 -18 c4 9 6 9 6 1
2 -20 -16 -24 -30 -5 -13 15 -12 16 3 4 13 -10 17 -10 21 0z m2184 -24 c-3 -8
-6 -5 -6 6 -1 11 2 17 5 13 3 -3 4 -12 1 -19z m-1292 -8 c3 -6 -1 -7 -9 -4
-18 7 -21 14 -7 14 6 0 13 -4 16 -10z m35 -106 c0 -8 -19 -13 -24 -6 -3 5 1 9
9 9 8 0 15 -2 15 -3z m-285 -512 c-3 -3 -11 0 -18 7 -9 10 -8 11 6 5 10 -3 15
-9 12 -12z m829 -7 c-4 -8 -11 -15 -16 -15 -6 0 -5 6 2 15 7 8 14 15 16 15 2
0 1 -7 -2 -15z m-488 -10 c-1 -8 -5 -17 -8 -21 -5 -4 -4 16 1 34 3 9 9 -1 7
-13z m108 -2 c6 -14 9 -15 15 -4 5 8 11 9 15 3 12 -19 -22 -20 -40 -1 -9 10
-12 19 -7 19 6 0 14 -8 17 -17z m-475 -39 c-12 -15 -11 -16 10 -9 21 6 22 5
10 -8 -9 -10 -18 -12 -26 -5 -13 11 -7 38 9 38 6 0 4 -7 -3 -16z m280 -15 c-8
-16 -13 -18 -25 -8 -18 15 -18 17 4 15 9 0 16 5 14 12 -1 8 2 11 8 7 7 -4 7
-13 -1 -26z"/>
<path d="M2463 4285 c0 -13 33 -13 44 0 5 4 2 5 -4 1 -7 -4 -13 -3 -13 2 0 5
-6 9 -13 9 -8 0 -14 -6 -14 -12z"/>
<path d="M2358 4253 c0 -5 -2 -15 -2 -23 -1 -9 -10 -14 -21 -13 -11 1 -14 0
-7 -3 6 -3 9 -11 5 -17 -3 -6 5 -2 19 9 15 11 21 22 16 25 -6 4 -7 12 -4 18 4
6 5 11 2 11 -3 0 -7 -3 -8 -7z"/>
<path d="M140 4181 c-13 -25 3 -36 21 -14 12 14 12 16 0 8 -11 -6 -13 -4 -8 8
9 23 0 21 -13 -2z"/>
<path d="M2694 4091 c4 -6 3 -18 -4 -26 -7 -9 -8 -15 0 -20 5 -3 10 -5 11 -3
7 32 7 48 -3 54 -7 4 -8 3 -4 -5z"/>
<path d="M2277 4009 c7 -7 15 -10 18 -7 3 3 -2 9 -12 12 -14 6 -15 5 -6 -5z"/>
<path d="M2696 4007 c3 -10 9 -15 12 -12 3 3 0 11 -7 18 -10 9 -11 8 -5 -6z"/>
<path d="M2687 3956 c-4 -10 -1 -13 8 -9 8 3 12 9 9 14 -7 12 -11 11 -17 -5z"/>
<path d="M120 3880 c-6 -11 -7 -20 -2 -20 6 0 12 9 15 20 3 11 3 20 1 20 -2 0
-8 -9 -14 -20z"/>
<path d="M105 3750 c-3 -5 -1 -10 4 -10 6 0 11 5 11 10 0 6 -2 10 -4 10 -3 0
-8 -4 -11 -10z"/>
<path d="M2683 3729 c-1 -10 2 -21 8 -24 5 -4 6 2 2 12 -6 16 -5 17 13 3 17
-14 18 -13 7 1 -7 9 -11 18 -8 21 3 2 -1 5 -8 5 -7 0 -14 -8 -14 -18z"/>
<path d="M2287 3680 c-9 -11 -13 -20 -7 -20 5 0 14 9 20 20 6 11 9 20 8 20 -2
0 -11 -9 -21 -20z"/>
<path d="M4869 3663 c-13 -16 -12 -17 4 -4 9 7 17 15 17 17 0 8 -8 3 -21 -13z"/>
<path d="M127 3536 c-4 -10 -1 -13 8 -9 8 3 12 9 9 14 -7 12 -11 11 -17 -5z"/>
<path d="M4870 3480 c0 -5 5 -10 11 -10 5 0 7 5 4 10 -3 6 -8 10 -11 10 -2 0
-4 -4 -4 -10z"/>
<path d="M4855 3419 c-3 -4 2 -6 10 -5 21 3 28 13 10 13 -9 0 -18 -4 -20 -8z"/>
<path d="M2870 3411 c0 -5 5 -13 10 -16 6 -3 10 -2 10 4 0 5 -4 13 -10 16 -5
3 -10 2 -10 -4z"/>
<path d="M115 3390 c-3 -5 -1 -10 4 -10 6 0 11 5 11 10 0 6 -2 10 -4 10 -3 0
-8 -4 -11 -10z"/>
<path d="M1923 3303 c0 -9 4 -10 14 -2 7 6 13 12 13 14 0 1 -6 2 -13 2 -8 0
-14 -6 -14 -14z"/>
<path d="M1900 3301 c0 -7 -4 -10 -8 -7 -5 3 -9 -2 -9 -10 0 -13 2 -13 16 0 8
9 12 19 8 22 -4 4 -7 2 -7 -5z"/>
<path d="M105 3270 c-3 -5 -1 -10 4 -10 6 0 11 5 11 10 0 6 -2 10 -4 10 -3 0
-8 -4 -11 -10z"/>
<path d="M1811 3263 c-1 -16 16 -26 24 -13 4 6 11 7 17 4 7 -4 8 -2 4 5 -6 9
-11 9 -21 1 -10 -8 -14 -7 -18 2 -4 9 -6 9 -6 1z"/>
<path d="M1615 3160 c3 -5 8 -10 11 -10 2 0 4 5 4 10 0 6 -5 10 -11 10 -5 0
-7 -4 -4 -10z"/>
<path d="M4860 3080 c0 -5 5 -10 11 -10 5 0 7 5 4 10 -3 6 -8 10 -11 10 -2 0
-4 -4 -4 -10z"/>
<path d="M127 3056 c-4 -10 -1 -13 8 -9 8 3 12 9 9 14 -7 12 -11 11 -17 -5z"/>
<path d="M3565 3050 c-3 -6 1 -7 9 -4 18 7 21 14 7 14 -6 0 -13 -4 -16 -10z"/>
<path d="M4870 3000 c0 -5 5 -10 11 -10 5 0 7 5 4 10 -3 6 -8 10 -11 10 -2 0
-4 -4 -4 -10z"/>
<path d="M1306 2954 c-5 -14 -4 -15 9 -4 17 14 19 20 6 20 -5 0 -12 -7 -15
-16z"/>
<path d="M2735 2947 c4 -8 17 -17 30 -19 16 -4 22 -1 18 9 -3 7 -9 10 -14 7
-6 -3 -17 0 -25 7 -12 10 -13 9 -9 -4z"/>
<path d="M4861 2946 c-10 -11 -9 -14 1 -12 14 2 23 15 15 22 -2 2 -10 -2 -16
-10z"/>
<path d="M2796 2913 c-4 -9 -4 -14 0 -10 4 4 14 1 23 -6 14 -11 15 -10 1 8 -8
11 -15 21 -16 23 -1 2 -5 -5 -8 -15z"/>
<path d="M115 2910 c-3 -5 -1 -10 4 -10 6 0 11 5 11 10 0 6 -2 10 -4 10 -3 0
-8 -4 -11 -10z"/>
<path d="M1260 2894 c8 -10 15 -20 16 -22 1 -2 4 1 7 5 3 5 -4 15 -16 23 -21
12 -21 12 -7 -6z"/>
<path d="M2276 2898 c3 -5 10 -6 15 -3 13 9 11 12 -6 12 -8 0 -12 -4 -9 -9z"/>
<path d="M2989 2863 c-13 -16 -12 -17 4 -4 16 13 21 21 13 21 -2 0 -10 -8 -17
-17z"/>
<path d="M2662 2830 c-15 -24 11 -51 31 -31 9 10 8 11 -6 5 -12 -4 -17 -2 -15
7 2 8 7 17 12 20 4 4 4 9 -1 12 -5 3 -14 -3 -21 -13z"/>
<path d="M3100 2840 c0 -5 5 -10 11 -10 5 0 7 5 4 10 -3 6 -8 10 -11 10 -2 0
-4 -4 -4 -10z"/>
<path d="M3163 2825 c0 -8 4 -12 9 -9 5 3 6 10 3 15 -9 13 -12 11 -12 -6z"/>
<path d="M105 2790 c-3 -5 -1 -10 4 -10 6 0 11 5 11 10 0 6 -2 10 -4 10 -3 0
-8 -4 -11 -10z"/>
<path d="M2670 2760 c13 -24 17 -25 17 -5 0 8 -6 16 -14 19 -11 4 -11 1 -3
-14z"/>
<path d="M3501 2724 c0 -11 3 -14 6 -6 3 7 2 16 -1 19 -3 4 -6 -2 -5 -13z"/>
<path d="M3670 2709 c0 -5 5 -7 10 -4 6 3 10 8 10 11 0 2 -4 4 -10 4 -5 0 -10
-5 -10 -11z"/>
<path d="M4856 2702 c-3 -4 4 -9 15 -9 23 -2 25 3 4 10 -8 4 -16 3 -19 -1z"/>
<path d="M4865 2639 c2 -10 6 -23 9 -28 4 -5 1 -12 -4 -14 -6 -3 -5 -4 1 -3
16 3 21 36 6 36 -8 0 -7 3 1 9 11 7 11 9 -1 14 -11 4 -15 0 -12 -14z"/>
<path d="M127 2576 c-4 -10 -1 -13 8 -9 8 3 12 9 9 14 -7 12 -11 11 -17 -5z"/>
<path d="M2300 2524 c0 -13 18 -39 24 -34 2 3 -2 14 -10 24 -8 11 -14 16 -14
10z"/>
<path d="M4870 2520 c0 -5 5 -10 11 -10 5 0 7 5 4 10 -3 6 -8 10 -11 10 -2 0
-4 -4 -4 -10z"/>
<path d="M4861 2466 c-10 -11 -9 -14 1 -12 14 2 23 15 15 22 -2 2 -10 -2 -16
-10z"/>
<path d="M2311 2446 c-10 -11 -9 -14 1 -12 14 2 23 15 15 22 -2 2 -10 -2 -16
-10z"/>
<path d="M115 2430 c-3 -5 -1 -10 4 -10 6 0 11 5 11 10 0 6 -2 10 -4 10 -3 0
-8 -4 -11 -10z"/>
<path d="M2308 2413 c7 -3 16 -2 19 1 4 3 -2 6 -13 5 -11 0 -14 -3 -6 -6z"/>
<path d="M2295 2380 c-3 -5 -2 -10 4 -10 5 0 13 5 16 10 3 6 2 10 -4 10 -5 0
-13 -4 -16 -10z"/>
<path d="M105 2310 c-3 -5 -1 -10 4 -10 6 0 11 5 11 10 0 6 -2 10 -4 10 -3 0
-8 -4 -11 -10z"/>
<path d="M2755 2280 c-3 -5 -1 -10 4 -10 6 0 11 5 11 10 0 6 -2 10 -4 10 -3 0
-8 -4 -11 -10z"/>
<path d="M125 2270 c-3 -6 1 -7 9 -4 18 7 21 14 7 14 -6 0 -13 -4 -16 -10z"/>
<path d="M2790 2236 c0 -2 7 -9 15 -16 9 -7 15 -8 15 -2 0 5 -7 12 -15 16 -8
3 -15 4 -15 2z"/>
<path d="M4874 2199 c-3 -6 -2 -15 3 -20 5 -5 9 -1 10 11 2 22 -2 25 -13 9z"/>
<path d="M2874 2192 c3 -6 2 -13 -3 -16 -5 -4 -12 -2 -16 4 -3 5 -11 10 -17
10 -6 0 1 -10 16 -21 15 -12 30 -19 33 -15 4 3 1 6 -7 6 -10 0 -10 3 -1 14 9
11 9 16 0 22 -7 4 -9 3 -5 -4z"/>
<path d="M4860 2139 c0 -5 5 -7 10 -4 6 3 10 8 10 11 0 2 -4 4 -10 4 -5 0 -10
-5 -10 -11z"/>
<path d="M2570 2020 c0 -5 5 -10 11 -10 5 0 7 5 4 10 -3 6 -8 10 -11 10 -2 0
-4 -4 -4 -10z"/>
<path d="M2053 1955 c0 -8 4 -12 9 -9 5 3 6 10 3 15 -9 13 -12 11 -12 -6z"/>
<path d="M4830 1961 c0 -6 4 -13 10 -16 6 -3 7 1 4 9 -7 18 -14 21 -14 7z"/>
<path d="M2796 1951 c-4 -5 -2 -12 3 -15 5 -4 12 -2 15 3 4 5 2 12 -3 15 -5 4
-12 2 -15 -3z"/>
<path d="M2830 1940 c0 -5 5 -10 11 -10 5 0 7 5 4 10 -3 6 -8 10 -11 10 -2 0
-4 -4 -4 -10z"/>
<path d="M163 1924 c9 -11 14 -24 10 -27 -3 -4 -1 -7 5 -7 6 0 10 9 9 20 -1
10 -3 17 -6 15 -2 -3 -11 1 -20 7 -12 10 -12 7 2 -8z"/>
<path d="M4801 1871 c-9 -6 -10 -11 -2 -15 6 -4 11 -2 11 4 0 6 5 8 12 4 7 -4
8 -3 4 4 -8 14 -7 14 -25 3z"/>
<path d="M4700 1670 c-8 -5 -12 -11 -10 -14 3 -2 14 2 24 10 22 15 10 19 -14
4z"/>
<path d="M4655 1600 c-4 -6 -11 -7 -17 -4 -7 4 -8 2 -4 -5 6 -9 11 -9 22 0 14
11 18 19 10 19 -3 0 -8 -5 -11 -10z"/>
<path d="M356 1578 c3 -5 10 -6 15 -3 13 9 11 12 -6 12 -8 0 -12 -4 -9 -9z"/>
<path d="M395 1540 c3 -5 8 -10 11 -10 2 0 4 5 4 10 0 6 -5 10 -11 10 -5 0 -7
-4 -4 -10z"/>
<path d="M4379 1393 c-13 -16 -12 -17 4 -4 16 13 21 21 13 21 -2 0 -10 -8 -17
-17z"/>
<path d="M770 1360 c0 -5 5 -10 11 -10 5 0 7 5 4 10 -3 6 -8 10 -11 10 -2 0
-4 -4 -4 -10z"/>
<path d="M800 1344 c0 -2 9 -8 19 -14 14 -7 22 -7 27 2 4 7 3 8 -4 4 -7 -4
-12 -3 -12 2 0 5 -7 9 -15 9 -8 0 -15 -2 -15 -3z"/>
<path d="M4226 1342 c-3 -5 1 -9 9 -9 8 0 12 4 9 9 -3 4 -7 8 -9 8 -2 0 -6 -4
-9 -8z"/>
<path d="M866 1332 c-3 -5 1 -9 9 -9 8 0 12 4 9 9 -3 4 -7 8 -9 8 -2 0 -6 -4
-9 -8z"/>
<path d="M1915 1320 c3 -5 8 -10 11 -10 2 0 4 5 4 10 0 6 -5 10 -11 10 -5 0
-7 -4 -4 -10z"/>
<path d="M2950 1319 c0 -5 -4 -8 -9 -4 -5 3 -12 1 -15 -4 -4 -5 2 -8 11 -7 15
3 33 26 19 26 -3 0 -6 -5 -6 -11z"/>
<path d="M2836 1227 c3 -10 9 -15 12 -12 3 3 0 11 -7 18 -10 9 -11 8 -5 -6z"/>
<path d="M2073 1188 c-6 -7 -8 -22 -6 -33 2 -11 5 -30 6 -42 2 -12 7 -26 11
-30 5 -5 6 -2 1 6 -6 11 -4 13 11 8 18 -7 18 -7 0 8 -11 8 -17 15 -13 15 4 0
3 8 -2 18 -7 13 -6 23 1 30 7 7 8 12 3 12 -6 0 -3 5 5 10 8 5 10 10 4 10 -6 0
-16 -6 -21 -12z"/>
<path d="M2074 1055 c-10 -8 -14 -15 -8 -15 6 0 17 7 24 15 16 19 9 19 -16 0z"/>
<path d="M2067 983 c3 -7 8 -13 12 -13 4 0 8 6 8 13 0 8 -6 14 -13 14 -7 0
-10 -6 -7 -14z"/>
<path d="M2078 953 c7 -3 16 -2 19 1 4 3 -2 6 -13 5 -11 0 -14 -3 -6 -6z"/>
<path d="M2566 923 c2 -6 -2 -14 -9 -16 -7 -2 -9 -7 -6 -11 3 -3 14 4 25 16
10 12 14 18 7 15 -6 -4 -13 -4 -16 0 -2 5 -2 3 -1 -4z"/>
<path d="M2069 905 c-7 -28 6 -73 18 -61 3 3 0 13 -8 23 -12 15 -12 16 6 10
18 -7 19 -6 3 6 -10 8 -15 17 -11 20 3 4 3 7 0 7 -4 0 -8 -2 -8 -5z"/>
<path d="M2074 803 c1 -18 6 -36 11 -40 4 -5 5 -2 0 6 -6 11 -4 13 11 8 18 -7
18 -6 -1 8 -11 9 -19 18 -17 21 2 2 1 10 -1 17 -3 6 -4 -2 -3 -20z"/>
<path d="M2074 735 c-10 -8 -14 -15 -8 -15 6 0 17 7 24 15 16 19 9 19 -16 0z"/>
<path d="M2406 734 c-9 -24 -2 -26 12 -4 7 11 8 20 3 20 -5 0 -12 -7 -15 -16z"/>
<path d="M2067 663 c3 -7 8 -13 12 -13 4 0 8 6 8 13 0 8 -6 14 -13 14 -7 0
-10 -6 -7 -14z"/>
<path d="M2078 633 c7 -3 16 -2 19 1 4 3 -2 6 -13 5 -11 0 -14 -3 -6 -6z"/>
<path d="M2315 630 c-4 -6 -12 -7 -18 -4 -7 4 -9 4 -5 -1 11 -11 -11 -47 -24
-39 -7 4 -8 3 -4 -4 10 -16 10 -16 40 23 15 19 25 35 22 35 -3 0 -8 -5 -11
-10z"/>
<path d="M2063 567 c0 -7 9 -13 19 -13 10 0 18 1 18 3 0 1 -8 7 -18 12 -13 7
-19 6 -19 -2z"/>
<path d="M2070 420 c0 -5 7 -7 15 -4 8 4 15 8 15 10 0 2 -7 4 -15 4 -8 0 -15
-4 -15 -10z"/>
<path d="M4394 4929 c-3 -6 -1 -16 4 -21 8 -8 11 -5 9 11 -1 24 -3 25 -13 10z"/>
<path d="M562 4895 c-7 -8 -9 -15 -4 -15 5 0 15 7 22 15 16 19 -1 19 -18 0z"/>
<path d="M4426 4888 c3 -5 10 -6 15 -3 13 9 11 12 -6 12 -8 0 -12 -4 -9 -9z"/>
<path d="M415 4820 c-3 -5 -1 -10 4 -10 6 0 11 5 11 10 0 6 -2 10 -4 10 -3 0
-8 -4 -11 -10z"/>
<path d="M4600 4795 c-7 -9 -8 -15 -2 -15 5 0 12 7 16 15 3 8 4 15 2 15 -2 0
-9 -7 -16 -15z"/>
<path d="M4620 4777 c0 -2 6 -10 14 -16 11 -9 16 -9 22 1 4 7 4 10 -1 6 -4 -4
-14 -3 -22 3 -7 6 -13 9 -13 6z"/>
<path d="M4790 4596 c0 -2 6 -9 14 -15 11 -9 16 -9 22 0 4 8 3 9 -4 5 -7 -4
-12 -2 -12 3 0 6 -4 11 -10 11 -5 0 -10 -2 -10 -4z"/>
<path d="M4845 4520 c3 -5 8 -10 11 -10 2 0 4 5 4 10 0 6 -5 10 -11 10 -5 0
-7 -4 -4 -10z"/>
<path d="M60 4385 c-9 -10 -9 -15 -1 -15 6 0 11 5 11 11 0 5 5 7 12 3 7 -4 8
-3 4 4 -9 15 -11 15 -26 -3z"/>
<path d="M4916 1753 c-4 -9 -3 -20 1 -24 4 -4 9 3 9 17 2 28 -1 31 -10 7z"/>
<path d="M4870 1675 c-11 -13 -10 -14 4 -9 9 3 16 10 16 15 0 13 -6 11 -20 -6z"/>
<path d="M115 1660 c-3 -6 1 -7 9 -4 18 7 21 14 7 14 -6 0 -13 -4 -16 -10z"/>
<path d="M4770 1545 c-7 -9 -10 -18 -6 -22 3 -3 6 -1 6 6 0 7 4 10 8 7 5 -3 9
1 9 9 0 19 -2 19 -17 0z"/>
<path d="M235 1529 c-4 -6 -5 -12 -2 -15 2 -3 7 2 10 11 7 17 1 20 -8 4z"/>
<path d="M4685 1450 c-3 -6 1 -7 9 -4 18 7 21 14 7 14 -6 0 -13 -4 -16 -10z"/>
<path d="M350 1420 c0 -5 5 -10 11 -10 5 0 7 -5 3 -12 -4 -7 -3 -8 5 -4 9 6 9
11 0 22 -14 17 -19 18 -19 4z"/>
<path d="M636 1242 c-3 -5 1 -9 9 -9 8 0 12 4 9 9 -3 4 -7 8 -9 8 -2 0 -6 -4
-9 -8z"/>
<path d="M754 1209 c-4 -7 -3 -9 4 -5 5 3 13 0 15 -6 4 -9 6 -10 6 -1 1 17
-16 25 -25 12z"/>
<path d="M4195 1209 c-4 -6 -5 -12 -2 -15 2 -3 7 2 10 11 7 17 1 20 -8 4z"/>
<path d="M1857 1193 c-4 -3 -7 -11 -7 -17 0 -6 5 -5 12 2 6 6 9 14 7 17 -3 3
-9 2 -12 -2z"/>
<path d="M826 1182 c-3 -5 1 -9 9 -9 8 0 12 4 9 9 -3 4 -7 8 -9 8 -2 0 -6 -4
-9 -8z"/>
<path d="M1790 1180 c0 -5 5 -10 11 -10 5 0 7 5 4 10 -3 6 -8 10 -11 10 -2 0
-4 -4 -4 -10z"/>
<path d="M1895 1180 c-3 -5 -1 -10 4 -10 6 0 11 5 11 10 0 6 -2 10 -4 10 -3 0
-8 -4 -11 -10z"/>
<path d="M4100 1180 c-9 -6 -10 -10 -3 -10 6 0 15 5 18 10 8 12 4 12 -15 0z"/>
<path d="M1921 1173 c-1 -17 16 -25 25 -12 4 7 3 9 -4 5 -5 -3 -13 0 -15 6 -4
9 -6 10 -6 1z"/>
<path d="M2935 1150 c-3 -5 -1 -10 4 -10 6 0 11 5 11 10 0 6 -2 10 -4 10 -3 0
-8 -4 -11 -10z"/>
<path d="M1933 1072 c0 -12 5 -22 9 -22 11 0 10 12 -2 30 -7 12 -9 10 -7 -8z"/>
<path d="M2876 1058 c3 -5 10 -6 15 -3 13 9 11 12 -6 12 -8 0 -12 -4 -9 -9z"/>
<path d="M2836 1041 c-3 -5 1 -11 9 -14 9 -4 12 -1 8 9 -6 16 -10 17 -17 5z"/>
<path d="M2795 980 c3 -5 8 -10 11 -10 2 0 4 5 4 10 0 6 -5 10 -11 10 -5 0 -7
-4 -4 -10z"/>
<path d="M1933 905 c0 -8 4 -15 9 -15 4 0 8 4 8 9 0 6 -4 12 -8 15 -5 3 -9 -1
-9 -9z"/>
<path d="M1933 745 c0 -8 4 -15 9 -15 4 0 8 4 8 9 0 6 -4 12 -8 15 -5 3 -9 -1
-9 -9z"/>
<path d="M1933 585 c0 -8 4 -15 9 -15 4 0 8 4 8 9 0 6 -4 12 -8 15 -5 3 -9 -1
-9 -9z"/>
<path d="M1909 523 c-13 -16 -12 -17 4 -4 16 13 21 21 13 21 -2 0 -10 -8 -17
-17z"/>
<path d="M1930 441 c0 -6 4 -13 10 -16 6 -3 7 1 4 9 -7 18 -14 21 -14 7z"/>
<path d="M2235 340 c3 -5 8 -10 11 -10 2 0 4 5 4 10 0 6 -5 10 -11 10 -5 0 -7
-4 -4 -10z"/>
<path d="M1915 300 c3 -5 8 -10 11 -10 2 0 4 5 4 10 0 6 -5 10 -11 10 -5 0 -7
-4 -4 -10z"/>
<path d="M1915 130 c-4 -6 1 -7 11 -3 12 4 15 3 10 -5 -4 -7 -2 -12 6 -12 9 0
9 -3 -2 -10 -17 -11 -10 -13 13 -4 14 5 13 8 -1 25 -18 21 -28 24 -37 9z"/>
</g>
</svg>
